<svg width="32" height="32" viewBox="0 0 32 32" fill="none" xmlns="http://www.w3.org/2000/svg">
<rect width="32" height="32" rx="6" fill="#2A09FA" fill-opacity="0.3"/>
<rect x="0.5" y="0.5" width="31" height="31" rx="5.5" stroke="#5F46FF" stroke-opacity="0.6"/>
<path d="M18.0417 18.1958C17.0322 18.1699 16.2169 17.3632 16.2169 16.3667C16.2169 17.3632 15.4059 18.1699 14.4008 18.1915C15.4102 18.2174 16.2169 19.0284 16.2169 20.0206C16.2169 19.0241 17.0279 18.2174 18.0417 18.1958Z" fill="white"/>
<path d="M17.6705 9.0979H14.8536C14.4912 9.0979 14.159 9.30065 13.9908 9.62419L7.58037 22.1043C7.39487 22.4666 7.65802 22.9023 8.06352 22.9023H11.2989C11.6656 22.9023 12.0021 22.6953 12.166 22.3674L13.8873 18.9379C14.1202 18.472 14.1159 17.9198 13.8786 17.4582L12.6406 15.0726C12.3041 14.4255 12.7743 13.649 13.499 13.649H19.0251C19.7541 13.6577 20.22 14.4342 19.8836 15.0813L18.4902 17.7516C18.3435 18.0276 18.3435 18.3598 18.4816 18.6402L20.3538 22.3674C20.5177 22.6953 20.8542 22.9023 21.2209 22.9023H24.4563C24.8618 22.9023 25.1249 22.4709 24.9394 22.1043L18.5333 9.62419C18.3651 9.30065 18.0329 9.0979 17.6705 9.0979Z" fill="white"/>
</svg>
