<svg width="24" height="24" viewBox="0 0 24 24" fill="none" xmlns="http://www.w3.org/2000/svg">
<path d="M11.1477 9.98345L8.53352 7.37982C8.46944 7.31601 8.43344 7.22933 8.43344 7.13895L8.43344 5.95192C8.43344 5.86148 8.46944 5.77485 8.53352 5.71105L11.1477 3.10741C11.2114 3.04393 11.2977 3.0083 11.3876 3.0083L12.5763 3.0083C12.6662 3.0083 12.7525 3.04393 12.8162 3.10741L15.4304 5.71105C15.4945 5.77485 15.5305 5.86154 15.5305 5.95192L15.5305 7.13895C15.5305 7.22938 15.4945 7.31601 15.4304 7.37982L12.8162 9.98345C12.7525 10.0469 12.6661 10.0826 12.5763 10.0826L11.3876 10.0826C11.2977 10.0826 11.2114 10.0469 11.1477 9.98345Z" fill="#0F3433"/>
<path d="M5.71127 15.4199L3.09709 12.8163C3.03301 12.7525 2.99701 12.6658 2.99701 12.5754L2.99701 11.3884C2.99701 11.2979 3.03301 11.2113 3.09709 11.1475L5.71127 8.54386C5.77497 8.48037 5.86128 8.44475 5.95118 8.44475L7.13982 8.44475C7.22977 8.44475 7.31602 8.48037 7.37972 8.54386L9.99397 11.1475C10.058 11.2113 10.094 11.298 10.094 11.3884L10.094 12.5754C10.094 12.6658 10.058 12.7525 9.99397 12.8163L7.37972 15.4199C7.31602 15.4834 7.22972 15.519 7.13982 15.519L5.95118 15.519C5.86123 15.519 5.77497 15.4834 5.71127 15.4199Z" fill="#0F3433"/>
<path d="M16.6022 15.438L13.988 12.8343C13.9239 12.7705 13.8879 12.6838 13.8879 12.5934L13.8879 11.4064C13.8879 11.316 13.9239 11.2294 13.988 11.1655L16.6022 8.56191C16.6659 8.49843 16.7522 8.4628 16.8421 8.4628L18.0307 8.4628C18.1207 8.4628 18.2069 8.49843 18.2706 8.56191L20.8849 11.1655C20.9489 11.2294 20.9849 11.316 20.9849 11.4064L20.9849 12.5934C20.9849 12.6839 20.9489 12.7705 20.8849 12.8343L18.2706 15.438C18.2069 15.5014 18.1206 15.5371 18.0307 15.5371L16.8421 15.5371C16.7521 15.5371 16.6659 15.5014 16.6022 15.438Z" fill="#0F3433"/>
<path d="M11.1657 20.8745L8.55155 18.2708C8.48748 18.207 8.45148 18.1203 8.45148 18.03L8.45148 16.8429C8.45148 16.7525 8.48748 16.6659 8.55155 16.6021L11.1657 13.9984C11.2294 13.9349 11.3157 13.8993 11.4056 13.8993L12.5943 13.8993C12.6842 13.8993 12.7705 13.9349 12.8342 13.9984L15.4484 16.6021C15.5125 16.6659 15.5485 16.7525 15.5485 16.8429L15.5485 18.03C15.5485 18.1204 15.5125 18.207 15.4484 18.2708L12.8342 20.8745C12.7705 20.9379 12.6842 20.9736 12.5943 20.9736L11.4056 20.9736C11.3157 20.9736 11.2294 20.9379 11.1657 20.8745Z" fill="#0F3433"/>
</svg>
