<svg width="25" height="19" viewBox="0 0 25 19" fill="none" xmlns="http://www.w3.org/2000/svg">
<path d="M21.1775 1.59111C19.5591 0.84771 17.8287 0.307422 16.0197 0C15.7975 0.394248 15.5378 0.924719 15.3591 1.34689C13.4359 1.06309 11.5306 1.06309 9.64279 1.34689C9.46373 0.925026 9.19841 0.394555 8.97435 0C7.16341 0.307728 5.4309 0.849858 3.81278 1.59509C0.548392 6.43775 -0.336298 11.1601 0.106203 15.8156C2.27121 17.4028 4.36934 18.3671 6.43184 18.9982C6.94122 18.31 7.39528 17.5786 7.78654 16.8076C7.04122 16.5296 6.32747 16.1866 5.65309 15.788C5.83216 15.6579 6.00716 15.5217 6.17622 15.3818C10.2897 17.2708 14.7594 17.2708 18.8238 15.3818C18.9947 15.5217 19.1697 15.6579 19.3469 15.788C18.6703 16.1884 17.9547 16.5314 17.2094 16.8094C17.6006 17.5783 18.0528 18.3118 18.5641 19C20.6288 18.3689 22.7288 17.4049 24.8938 15.8156C25.4128 10.4189 24.0069 5.74007 21.1775 1.59141V1.59111ZM8.34716 12.9525C7.11216 12.9525 6.09966 11.8207 6.09966 10.4425C6.09966 9.06433 7.0906 7.93037 8.34716 7.93037C9.60373 7.93037 10.6162 9.06218 10.5947 10.4425C10.5965 11.8207 9.60373 12.9525 8.34716 12.9525ZM16.6531 12.9525C15.4181 12.9525 14.4056 11.8207 14.4056 10.4425C14.4056 9.06433 15.3966 7.93037 16.6531 7.93037C17.9097 7.93037 18.9222 9.06218 18.9006 10.4425C18.9006 11.8207 17.9097 12.9525 16.6531 12.9525Z" fill="white"/>
</svg>
