<svg width="32" height="32" viewBox="0 0 32 32" fill="none" xmlns="http://www.w3.org/2000/svg">
<rect x="0.5" y="0.5" width="31" height="31" rx="5.5" fill="#1F170B"/>
<rect x="0.5" y="0.5" width="31" height="31" rx="5.5" stroke="#31290C"/>
<path d="M11.1429 8C10.3535 8 9.71429 8.64 9.71429 9.42857V22.5714C9.71429 23.36 10.3543 24 11.1429 24H20.8572C21.6457 24 22.2857 23.36 22.2857 22.5714V16.5714C22.2857 15.8137 21.9847 15.0869 21.4489 14.5511C20.9131 14.0153 20.1863 13.7143 19.4286 13.7143H18C17.6211 13.7143 17.2578 13.5638 16.9899 13.2959C16.7219 13.028 16.5714 12.6646 16.5714 12.2857V10.8571C16.5714 10.0994 16.2704 9.37266 15.7346 8.83684C15.1988 8.30102 14.4721 8 13.7143 8H11.1429Z" fill="#F1CE5B"/>
<path d="M16.7398 8.24072C17.3695 8.96679 17.7156 9.896 17.7143 10.8571V12.2857C17.7143 12.4434 17.8423 12.5714 18 12.5714H19.4285C20.3896 12.5701 21.3189 12.9161 22.0449 13.5459C21.7097 12.271 21.0419 11.108 20.1098 10.1759C19.1776 9.24375 18.0147 8.57593 16.7398 8.24072Z" fill="#F1CE5B"/>
</svg>
