<svg width="32" height="32" viewBox="0 0 32 32" fill="none" xmlns="http://www.w3.org/2000/svg">
<rect width="32" height="32" rx="6" fill="#FF6500" fill-opacity="0.09"/>
<rect x="0.5" y="0.5" width="31" height="31" rx="5.5" stroke="#FF6500" stroke-opacity="0.3"/>
<path d="M17.7367 11.2597C17.7367 12.3188 16.7993 13.1847 15.6471 13.1847C14.495 13.1847 13.5576 12.326 13.5576 11.2597C13.5576 10.1934 14.495 9.33472 15.6471 9.33472C16.7993 9.33472 17.7367 10.1934 17.7367 11.2597Z" fill="#FF6500"/>
<path d="M19.4829 18.2799C19.4829 19.7684 17.7654 19.8185 15.6472 19.8185C13.529 19.8185 11.8115 19.7684 11.8115 18.2799C11.8115 16.7915 12.7704 14.3369 15.6472 14.3369C18.5239 14.3369 19.4829 16.7915 19.4829 18.2799Z" fill="#FF6500"/>
<path d="M10.0582 15.9757C11.2175 15.9757 12.1478 15.117 12.1478 14.0507C12.1478 12.9845 11.2103 12.1257 10.0582 12.1257C8.90608 12.1257 7.96863 12.9845 7.96863 14.0507C7.96863 15.117 8.90608 15.9757 10.0582 15.9757Z" fill="#FF6500"/>
<path d="M23.3184 14.0507C23.3184 15.1098 22.3809 15.9757 21.2288 15.9757C20.0767 15.9757 19.1392 15.117 19.1392 14.0507C19.1392 12.9845 20.0767 12.1257 21.2288 12.1257C22.3809 12.1257 23.3184 12.9845 23.3184 14.0507Z" fill="#FF6500"/>
<path fill-rule="evenodd" clip-rule="evenodd" d="M15.64 26.08C21.8229 26.08 26.8322 21.586 26.8322 16.04C26.8322 12.9128 25.2364 10.1148 22.7389 8.27564C20.8425 6.85873 18.3593 6 15.64 6C12.9207 6 10.4304 6.85873 8.54117 8.27564C6.04369 10.1148 4.44788 12.9056 4.44788 16.0329C4.44788 21.5788 9.45715 26.0729 15.64 26.0729V26.08ZM15.64 23.8545C21.415 23.8545 25.9734 19.89 25.9734 15.1312C25.9734 10.3724 21.415 6.4079 15.64 6.4079C9.86505 6.4079 5.30661 10.3724 5.30661 15.1312C5.30661 19.89 9.8722 23.8545 15.64 23.8545Z" fill="#FF6500"/>
</svg>
