<svg width="32" height="32" viewBox="0 0 32 32" fill="none" xmlns="http://www.w3.org/2000/svg">
<rect x="0.5" y="0.5" width="31" height="31" rx="5.5" fill="#1F170B"/>
<rect x="0.5" y="0.5" width="31" height="31" rx="5.5" stroke="#31290C"/>
<path d="M15.4477 7.11444C15.2819 6.8853 15.0143 6.75 14.7291 6.75C14.4439 6.75 14.1763 6.8853 14.0105 7.11444L9.25862 13.6612C8.29454 14.9902 7.85894 16.6248 8.04025 18.2505C8.22157 19.8763 9.00433 21.3799 10.2382 22.471C11.472 23.5622 13.0707 24.1667 14.7291 24.1667C16.3875 24.1667 17.9862 23.5622 19.22 22.471C20.4539 21.3799 21.2366 19.8763 21.418 18.2505C21.5993 16.6248 21.1659 14.9902 20.1996 13.6612L15.4477 7.11444Z" fill="#F1CE5B"/>
<rect x="7" y="22.0208" width="17" height="4" transform="rotate(-45 7 22.0208)" fill="#1F170B"/>
</svg>
