<svg width="21" height="21" viewBox="0 0 21 21" fill="none" xmlns="http://www.w3.org/2000/svg">
<path fill-rule="evenodd" clip-rule="evenodd" d="M10.5075 0C4.69773 0 0 4.81237 0 10.7666C0 15.5264 3.00921 19.5535 7.18425 20.9797C7.70694 21.0869 7.89837 20.7479 7.89837 20.4635C7.89837 20.2141 7.88117 19.3588 7.88117 18.4664C4.95799 19.1073 4.34927 17.1823 4.34927 17.1823C3.88036 15.9355 3.18344 15.6139 3.18344 15.6139C2.22626 14.9555 3.25227 14.9555 3.25227 14.9555C4.3127 15.0277 4.8698 16.0602 4.8698 16.0602C5.80978 17.7008 7.32191 17.237 7.93279 16.9505C8.01883 16.2549 8.29846 15.7736 8.59314 15.5068C6.26148 15.2574 3.80937 14.3299 3.80937 10.1957C3.80937 9.01881 4.22666 8.05634 4.88701 7.30823C4.78161 7.04136 4.4181 5.93671 4.99241 4.45581C4.99241 4.45581 5.87861 4.17144 7.88117 5.56047C8.73725 5.32422 9.6213 5.20392 10.5075 5.20392C11.3937 5.20392 12.2993 5.3286 13.1338 5.56047C15.1342 4.16926 16.0226 4.45581 16.0226 4.45581C16.5969 5.93452 16.2312 7.04136 16.128 7.30823C16.8056 8.05634 17.2056 9.01881 17.2056 10.1957C17.2056 14.3321 14.7535 15.2399 12.4047 15.5068C12.7875 15.8458 13.1188 16.4867 13.1188 17.5039C13.1188 18.9476 13.1016 20.1069 13.1016 20.4635C13.1016 20.7479 13.293 21.0869 13.8157 20.9797C17.9907 19.5535 21 15.5264 21 10.7666C21.0172 4.81237 16.3022 0 10.5097 0L10.5075 0Z" fill="white"/>
</svg>
