<svg width="32" height="32" viewBox="0 0 32 32" fill="none" xmlns="http://www.w3.org/2000/svg">
<rect x="0.5" y="0.5" width="31" height="31" rx="5.5" fill="#1F170B"/>
<rect x="0.5" y="0.5" width="31" height="31" rx="5.5" stroke="#31290C"/>
<path fill-rule="evenodd" clip-rule="evenodd" d="M16.0071 6C10.474 6 6 10.5832 6 16.2539C6 20.7871 8.86592 24.6224 12.8421 25.9807C13.3399 26.0828 13.5223 25.7599 13.5223 25.489C13.5223 25.2515 13.5059 24.437 13.5059 23.587C10.7219 24.1974 10.1422 22.3641 10.1422 22.3641C9.69558 21.1767 9.03185 20.8704 9.03185 20.8704C8.12025 20.2433 9.0974 20.2433 9.0974 20.2433C10.1073 20.3121 10.6379 21.2954 10.6379 21.2954C11.5331 22.8579 12.9733 22.4162 13.555 22.1433C13.637 21.4808 13.9033 21.0225 14.1839 20.7683C11.9633 20.5308 9.62797 19.6475 9.62797 15.7101C9.62797 14.5893 10.0254 13.6727 10.6543 12.9602C10.5539 12.7061 10.2077 11.654 10.7547 10.2436C10.7547 10.2436 11.5987 9.9728 13.5059 11.2957C14.3212 11.0707 15.1631 10.9561 16.0071 10.9561C16.8511 10.9561 17.7136 11.0749 18.5084 11.2957C20.4136 9.97072 21.2596 10.2436 21.2596 10.2436C21.8066 11.6519 21.4583 12.7061 21.36 12.9602C22.0053 13.6727 22.3863 14.5893 22.3863 15.7101C22.3863 19.6496 20.051 20.5142 17.814 20.7683C18.1786 21.0912 18.4941 21.7016 18.4941 22.6704C18.4941 24.0453 18.4777 25.1495 18.4777 25.489C18.4777 25.7599 18.66 26.0828 19.1578 25.9807C23.134 24.6224 26 20.7871 26 16.2539C26.0163 10.5832 21.5259 6 16.0092 6L16.0071 6Z" fill="#F1CE5B"/>
</svg>
