<svg width="32" height="32" viewBox="0 0 32 32" fill="none" xmlns="http://www.w3.org/2000/svg">
<rect x="0.5" y="0.5" width="31" height="31" rx="5.5" fill="#1F170B"/>
<rect x="0.5" y="0.5" width="31" height="31" rx="5.5" stroke="#31290C"/>
<path fill-rule="evenodd" clip-rule="evenodd" d="M22.4938 24.8251C22.0958 25.3524 21.6666 25.8541 21.2079 26.3287C21.105 26.43 20.9471 26.4499 20.8227 26.3765C20.6974 26.3031 20.6384 26.1547 20.6767 26.0151V26.0159C20.9181 25.1523 20.9126 23.9984 20.6863 22.918C18.4333 24.5432 15.4205 25.1326 12.7124 24.675C11.0741 24.3902 9.51057 23.7736 8.11942 22.8611C7.39353 22.3753 6.71471 21.8233 6.09013 21.2115C5.98963 21.1086 5.97128 20.9507 6.04466 20.8262C6.11806 20.7026 6.26562 20.6436 6.40521 20.6818C7.28025 20.926 8.42744 20.9209 9.50715 20.6926C7.87848 18.4389 7.28754 15.423 7.74559 12.7124C8.03036 11.0741 8.64695 9.51056 9.5595 8.11942C10.0453 7.39353 10.5973 6.71471 11.2091 6.09013C11.312 5.98963 11.4699 5.97128 11.5944 6.04466C11.718 6.11806 11.777 6.26562 11.7387 6.40521C11.4944 7.28059 11.4997 8.42834 11.7282 9.50841C13.9417 7.93361 16.8045 7.28663 19.6036 7.73403C21.4925 8.04426 23.2816 8.79567 24.8251 9.92678C25.3524 10.3248 25.8541 10.754 26.3287 11.2126C26.43 11.3155 26.4499 11.4735 26.3765 11.5979C26.3031 11.7232 26.1547 11.7822 26.0151 11.7439H26.0159C25.152 11.5024 23.9974 11.508 22.9167 11.7346C24.4882 13.9471 25.1335 16.8071 24.6866 19.6036C24.3763 21.4925 23.6249 23.2816 22.4938 24.8251ZM17.9543 14.815C18.0834 14.9765 18.1913 15.1576 18.273 15.3549C18.6184 16.1893 18.4278 17.1497 17.7889 17.7886C17.2809 18.2959 16.5699 18.5209 15.8804 18.4183C15.4174 18.349 14.9776 18.1345 14.632 17.7889C13.9938 17.1499 13.8024 16.1895 14.1478 15.3551C14.494 14.5208 15.3084 13.9768 16.2113 13.9768C16.9165 13.9777 17.5451 14.3046 17.9543 14.815Z" fill="#F1CE5B"/>
</svg>
