<svg width="32" height="32" viewBox="0 0 32 32" fill="none" xmlns="http://www.w3.org/2000/svg">
<rect width="32" height="32" rx="6" fill="#FF7B7C" fill-opacity="0.09"/>
<rect x="0.5" y="0.5" width="31" height="31" rx="5.5" stroke="#FF7B7C" stroke-opacity="0.3"/>
<path fill-rule="evenodd" clip-rule="evenodd" d="M16 6.09678C10.5221 6.09678 6.08009 10.5491 6.08009 16.044C6.08009 21.5389 10.5221 25.9913 16 25.9913C21.4779 25.9913 25.9199 21.5389 25.9199 16.044C25.9199 10.5511 21.4778 6.09678 16 6.09678ZM5.07422 16.044C5.07422 9.99196 9.96669 5.08813 16 5.08813C22.0333 5.08813 26.9257 9.99404 26.9257 16.044C26.9257 22.0961 22.0333 26.9999 16 26.9999C9.96669 26.9999 5.07422 22.0961 5.07422 16.044Z" fill="#FF7B7C"/>
<path fill-rule="evenodd" clip-rule="evenodd" d="M20.3134 13.4337L17.5573 13.3187L19.4303 11.2853L18.6759 10.5308L16.646 12.4028L16.5354 9.63916H15.4712L15.3565 12.4028L13.3287 10.5248L12.5763 11.2812L14.4452 13.3167L11.6871 13.4256V14.4948L14.4432 14.6098L12.5702 16.6432L13.3246 17.3977L15.3223 15.5539L15.4108 20.0322L13.8155 20.1492V21.1438L15.4349 21.2668L15.4651 22.8221H16.5293L16.5615 21.2688L18.1971 21.1438V20.1492L16.5857 20.0322L16.6762 15.5559L18.6718 17.4017L19.4242 16.6472L17.5573 14.6118L20.3134 14.5008V13.4337Z" fill="#FF7B7C"/>
</svg>
