<svg width="32" height="32" viewBox="0 0 32 32" fill="none" xmlns="http://www.w3.org/2000/svg">
<rect width="32" height="32" rx="6" fill="#E53935" fill-opacity="0.15"/>
<rect x="0.5" y="0.5" width="31" height="31" rx="5.5" stroke="#E53935" stroke-opacity="0.4"/>
<path d="M16 6C21.5225 6 26 10.4775 26 16C26 21.5225 21.5225 26 16 26C10.4775 26 6 21.5225 6 16C6 10.4775 10.4775 6 16 6ZM16 6.9325C10.9925 6.9325 6.9325 10.9925 6.9325 16C6.9325 21.0075 10.9925 25.0675 16 25.0675C21.0075 25.0675 25.0675 21.0075 25.0675 16C25.0675 10.9925 21.0075 6.9325 16 6.9325Z" fill="#E53935"/>
<path d="M21.8819 12.3225V11.475H19.1969C19.0519 10.9275 18.9094 10.445 18.7519 10L17.8469 10.1575C18.0194 10.59 18.1719 11.03 18.3044 11.475H15.4619V12.3225H21.8819ZM15.0044 18.6225V13.21H13.6819C13.9569 12.805 14.2319 12.31 14.5069 11.71V11.085H12.3444C12.4619 10.825 12.5669 10.5625 12.6719 10.29L11.8344 10.03C11.4419 11.3075 10.8244 12.34 9.99942 13.135L10.1969 14.06C10.3669 13.9025 10.5369 13.7475 10.6944 13.5775V18.625H15.0044V18.6225ZM12.7769 13.21H11.0219C11.3769 12.775 11.6969 12.3125 11.9794 11.8275H13.6294C13.3419 12.35 13.0669 12.82 12.7769 13.21ZM18.1744 22.0025C18.8294 22.0025 19.1694 21.6375 19.1694 20.92V17.2025H21.2519V13.4975H16.1544V17.2025H18.2519V20.6975C18.2519 21.0225 18.1219 21.1925 17.8594 21.1925C17.5569 21.1925 17.2444 21.1675 16.9294 21.1275L17.1119 22H18.1719L18.1744 22.0025ZM12.4744 15.5325H11.5044V13.98H12.4744V15.5325ZM14.1894 15.5325H13.2319V13.98H14.1894V15.5325ZM20.3594 16.38H17.0444V14.3325H20.3594V16.38ZM14.1894 17.84H13.2319V16.2875H14.1894V17.84ZM12.4719 17.84H11.5019V16.2875H12.4719V17.84ZM21.3019 21.4L21.9969 20.9175C21.6419 20.0825 21.1444 19.1175 20.4894 18.01L19.7944 18.4275C20.4244 19.51 20.9344 20.5 21.3019 21.4025V21.4ZM15.8119 21.6225C16.3894 20.7225 16.8869 19.6525 17.3044 18.4275L16.5444 18.0625C16.1394 19.235 15.6544 20.2525 15.1044 21.115L15.8119 21.6225ZM14.7244 20.735L15.3669 20.5775C15.1844 19.9525 14.9994 19.4025 14.7919 18.935L14.1769 19.1175C14.3894 19.645 14.5744 20.185 14.7269 20.735H14.7244ZM13.3369 21.4925L14.0194 21.415C13.9394 20.4225 13.7969 19.64 13.5869 19.0675L12.9319 19.145C13.1419 19.6925 13.2719 20.475 13.3369 21.4925ZM10.8344 21.845C11.1094 21.075 11.2794 20.2025 11.3594 19.21L10.6519 19.12C10.5869 20.06 10.4044 20.895 10.1144 21.625L10.8344 21.8475V21.845ZM11.9344 21.6875L12.6169 21.61C12.5894 20.58 12.5244 19.7575 12.4344 19.1575L11.8044 19.235C11.8694 19.81 11.9094 20.63 11.9344 21.6875Z" fill="#E53935"/>
</svg>
