<svg width="1982" height="152" viewBox="0 0 1982 152" fill="none" xmlns="http://www.w3.org/2000/svg">
<circle opacity="0.75" cx="1" cy="151" r="1" fill="#5D6065"/>
<circle opacity="0.5" cx="1" cy="121" r="1" fill="#5D6065"/>
<circle opacity="0.25" cx="1" cy="91" r="1" fill="#5D6065"/>
<circle opacity="0.75" cx="31" cy="151" r="1" fill="#5D6065"/>
<circle cx="31" cy="121" r="1" fill="#5D6065"/>
<circle cx="31" cy="91" r="1" fill="#5D6065"/>
<circle opacity="0.75" cx="31" cy="61" r="1" fill="#5D6065"/>
<circle opacity="0.5" cx="31" cy="31" r="1" fill="#5D6065"/>
<circle opacity="0.25" cx="31" cy="1" r="1" fill="#5D6065"/>
<circle opacity="0.75" cx="61" cy="151" r="1" fill="#5D6065"/>
<circle opacity="0.5" cx="61" cy="121" r="1" fill="#5D6065"/>
<circle opacity="0.25" cx="61" cy="91" r="1" fill="#5D6065"/>
<circle opacity="0.75" cx="91" cy="151" r="1" fill="#5D6065"/>
<circle opacity="0.5" cx="91" cy="121" r="1" fill="#5D6065"/>
<circle opacity="0.25" cx="91" cy="91" r="1" fill="#5D6065"/>
<circle opacity="0.75" cx="121" cy="151" r="1" fill="#5D6065"/>
<circle cx="121" cy="121" r="1" fill="#5D6065"/>
<circle cx="121" cy="91" r="1" fill="#5D6065"/>
<circle opacity="0.75" cx="121" cy="61" r="1" fill="#5D6065"/>
<circle opacity="0.5" cx="121" cy="31" r="1" fill="#5D6065"/>
<circle opacity="0.25" cx="121" cy="1" r="1" fill="#5D6065"/>
<circle opacity="0.75" cx="151" cy="151" r="1" fill="#5D6065"/>
<circle opacity="0.5" cx="151" cy="121" r="1" fill="#5D6065"/>
<circle opacity="0.25" cx="151" cy="91" r="1" fill="#5D6065"/>
<circle cx="181" cy="151" r="1" fill="#5D6065"/>
<circle opacity="0.75" cx="181" cy="121" r="1" fill="#5D6065"/>
<circle opacity="0.5" cx="181" cy="91" r="1" fill="#5D6065"/>
<circle opacity="0.25" cx="181" cy="61" r="1" fill="#5D6065"/>
<circle cx="211" cy="121" r="1" fill="#5D6065"/>
<circle cx="211" cy="151" r="1" fill="#5D6065"/>
<circle opacity="0.75" cx="211" cy="91" r="1" fill="#5D6065"/>
<circle opacity="0.5" cx="211" cy="61" r="1" fill="#5D6065"/>
<circle opacity="0.25" cx="211" cy="31" r="1" fill="#5D6065"/>
<circle opacity="0.75" cx="241" cy="151" r="1" fill="#5D6065"/>
<circle opacity="0.5" cx="241" cy="121" r="1" fill="#5D6065"/>
<circle opacity="0.25" cx="241" cy="91" r="1" fill="#5D6065"/>
<circle opacity="0.75" cx="271" cy="151" r="1" fill="#5D6065"/>
<circle cx="271" cy="121" r="1" fill="#5D6065"/>
<circle cx="271" cy="91" r="1" fill="#5D6065"/>
<circle opacity="0.75" cx="271" cy="61" r="1" fill="#5D6065"/>
<circle opacity="0.5" cx="271" cy="31" r="1" fill="#5D6065"/>
<circle opacity="0.25" cx="271" cy="1" r="1" fill="#5D6065"/>
<circle cx="301" cy="121" r="1" fill="#5D6065"/>
<circle cx="301" cy="151" r="1" fill="#5D6065"/>
<circle opacity="0.75" cx="301" cy="91" r="1" fill="#5D6065"/>
<circle opacity="0.5" cx="301" cy="61" r="1" fill="#5D6065"/>
<circle opacity="0.25" cx="301" cy="31" r="1" fill="#5D6065"/>
<circle opacity="0.75" cx="331" cy="151" r="1" fill="#5D6065"/>
<circle opacity="0.5" cx="331" cy="121" r="1" fill="#5D6065"/>
<circle opacity="0.25" cx="331" cy="91" r="1" fill="#5D6065"/>
<circle cx="361" cy="151" r="1" fill="#5D6065"/>
<circle opacity="0.75" cx="361" cy="121" r="1" fill="#5D6065"/>
<circle opacity="0.5" cx="361" cy="91" r="1" fill="#5D6065"/>
<circle opacity="0.25" cx="361" cy="61" r="1" fill="#5D6065"/>
<circle cx="391" cy="151" r="1" fill="#5D6065"/>
<circle opacity="0.75" cx="391" cy="121" r="1" fill="#5D6065"/>
<circle opacity="0.5" cx="391" cy="91" r="1" fill="#5D6065"/>
<circle opacity="0.25" cx="391" cy="61" r="1" fill="#5D6065"/>
<circle cx="421" cy="121" r="1" fill="#5D6065"/>
<circle cx="421" cy="151" r="1" fill="#5D6065"/>
<circle opacity="0.75" cx="421" cy="91" r="1" fill="#5D6065"/>
<circle opacity="0.5" cx="421" cy="61" r="1" fill="#5D6065"/>
<circle opacity="0.25" cx="421" cy="31" r="1" fill="#5D6065"/>
<circle opacity="0.75" cx="451" cy="151" r="1" fill="#5D6065"/>
<circle opacity="0.5" cx="451" cy="121" r="1" fill="#5D6065"/>
<circle opacity="0.25" cx="451" cy="91" r="1" fill="#5D6065"/>
<circle opacity="0.75" cx="481" cy="151" r="1" fill="#5D6065"/>
<circle cx="481" cy="121" r="1" fill="#5D6065"/>
<circle cx="481" cy="91" r="1" fill="#5D6065"/>
<circle opacity="0.75" cx="481" cy="61" r="1" fill="#5D6065"/>
<circle opacity="0.5" cx="481" cy="31" r="1" fill="#5D6065"/>
<circle opacity="0.25" cx="481" cy="1" r="1" fill="#5D6065"/>
<circle opacity="0.75" cx="511" cy="151" r="1" fill="#5D6065"/>
<circle opacity="0.5" cx="511" cy="121" r="1" fill="#5D6065"/>
<circle opacity="0.25" cx="511" cy="91" r="1" fill="#5D6065"/>
<circle opacity="0.75" cx="541" cy="151" r="1" fill="#5D6065"/>
<circle opacity="0.5" cx="541" cy="121" r="1" fill="#5D6065"/>
<circle opacity="0.25" cx="541" cy="91" r="1" fill="#5D6065"/>
<circle cx="571" cy="151" r="1" fill="#5D6065"/>
<circle opacity="0.75" cx="571" cy="121" r="1" fill="#5D6065"/>
<circle opacity="0.5" cx="571" cy="91" r="1" fill="#5D6065"/>
<circle opacity="0.25" cx="571" cy="61" r="1" fill="#5D6065"/>
<circle cx="601" cy="121" r="1" fill="#5D6065"/>
<circle cx="601" cy="151" r="1" fill="#5D6065"/>
<circle opacity="0.75" cx="601" cy="91" r="1" fill="#5D6065"/>
<circle opacity="0.5" cx="601" cy="61" r="1" fill="#5D6065"/>
<circle opacity="0.25" cx="601" cy="31" r="1" fill="#5D6065"/>
<circle opacity="0.75" cx="631" cy="151" r="1" fill="#5D6065"/>
<circle opacity="0.5" cx="631" cy="121" r="1" fill="#5D6065"/>
<circle opacity="0.25" cx="631" cy="91" r="1" fill="#5D6065"/>
<circle opacity="0.75" cx="661" cy="151" r="1" fill="#5D6065"/>
<circle cx="661" cy="121" r="1" fill="#5D6065"/>
<circle cx="661" cy="91" r="1" fill="#5D6065"/>
<circle opacity="0.75" cx="661" cy="61" r="1" fill="#5D6065"/>
<circle opacity="0.5" cx="661" cy="31" r="1" fill="#5D6065"/>
<circle opacity="0.25" cx="661" cy="1" r="1" fill="#5D6065"/>
<circle opacity="0.75" cx="691" cy="151" r="1" fill="#5D6065"/>
<circle opacity="0.5" cx="691" cy="121" r="1" fill="#5D6065"/>
<circle opacity="0.25" cx="691" cy="91" r="1" fill="#5D6065"/>
<circle cx="721" cy="151" r="1" fill="#5D6065"/>
<circle opacity="0.75" cx="721" cy="121" r="1" fill="#5D6065"/>
<circle opacity="0.5" cx="721" cy="91" r="1" fill="#5D6065"/>
<circle opacity="0.25" cx="721" cy="61" r="1" fill="#5D6065"/>
<circle cx="751" cy="121" r="1" fill="#5D6065"/>
<circle cx="751" cy="151" r="1" fill="#5D6065"/>
<circle opacity="0.75" cx="751" cy="91" r="1" fill="#5D6065"/>
<circle opacity="0.5" cx="751" cy="61" r="1" fill="#5D6065"/>
<circle opacity="0.25" cx="751" cy="31" r="1" fill="#5D6065"/>
<circle opacity="0.75" cx="781" cy="151" r="1" fill="#5D6065"/>
<circle cx="781" cy="121" r="1" fill="#5D6065"/>
<circle cx="781" cy="91" r="1" fill="#5D6065"/>
<circle opacity="0.75" cx="781" cy="61" r="1" fill="#5D6065"/>
<circle opacity="0.5" cx="781" cy="31" r="1" fill="#5D6065"/>
<circle opacity="0.25" cx="781" cy="1" r="1" fill="#5D6065"/>
<circle opacity="0.75" cx="811" cy="151" r="1" fill="#5D6065"/>
<circle opacity="0.5" cx="811" cy="121" r="1" fill="#5D6065"/>
<circle opacity="0.25" cx="811" cy="91" r="1" fill="#5D6065"/>
<circle opacity="0.75" cx="841" cy="151" r="1" fill="#5D6065"/>
<circle cx="841" cy="121" r="1" fill="#5D6065"/>
<circle cx="841" cy="91" r="1" fill="#5D6065"/>
<circle opacity="0.75" cx="841" cy="61" r="1" fill="#5D6065"/>
<circle opacity="0.5" cx="841" cy="31" r="1" fill="#5D6065"/>
<circle opacity="0.25" cx="841" cy="1" r="1" fill="#5D6065"/>
<circle opacity="0.75" cx="871" cy="151" r="1" fill="#5D6065"/>
<circle opacity="0.5" cx="871" cy="121" r="1" fill="#5D6065"/>
<circle opacity="0.25" cx="871" cy="91" r="1" fill="#5D6065"/>
<circle cx="901" cy="151" r="1" fill="#5D6065"/>
<circle opacity="0.75" cx="901" cy="121" r="1" fill="#5D6065"/>
<circle opacity="0.5" cx="901" cy="91" r="1" fill="#5D6065"/>
<circle opacity="0.25" cx="901" cy="61" r="1" fill="#5D6065"/>
<circle cx="931" cy="121" r="1" fill="#5D6065"/>
<circle cx="931" cy="151" r="1" fill="#5D6065"/>
<circle opacity="0.75" cx="931" cy="91" r="1" fill="#5D6065"/>
<circle opacity="0.5" cx="931" cy="61" r="1" fill="#5D6065"/>
<circle opacity="0.25" cx="931" cy="31" r="1" fill="#5D6065"/>
<circle opacity="0.75" cx="961" cy="151" r="1" fill="#5D6065"/>
<circle opacity="0.5" cx="961" cy="121" r="1" fill="#5D6065"/>
<circle opacity="0.25" cx="961" cy="91" r="1" fill="#5D6065"/>
<circle opacity="0.75" cx="991" cy="151" r="1" fill="#5D6065"/>
<circle cx="991" cy="121" r="1" fill="#5D6065"/>
<circle cx="991" cy="91" r="1" fill="#5D6065"/>
<circle opacity="0.75" cx="991" cy="61" r="1" fill="#5D6065"/>
<circle opacity="0.5" cx="991" cy="31" r="1" fill="#5D6065"/>
<circle opacity="0.25" cx="991" cy="1" r="1" fill="#5D6065"/>
<circle opacity="0.75" cx="1021" cy="151" r="1" fill="#5D6065"/>
<circle opacity="0.5" cx="1021" cy="121" r="1" fill="#5D6065"/>
<circle opacity="0.25" cx="1021" cy="91" r="1" fill="#5D6065"/>
<circle cx="1051" cy="151" r="1" fill="#5D6065"/>
<circle opacity="0.75" cx="1051" cy="121" r="1" fill="#5D6065"/>
<circle opacity="0.5" cx="1051" cy="91" r="1" fill="#5D6065"/>
<circle opacity="0.25" cx="1051" cy="61" r="1" fill="#5D6065"/>
<circle cx="1081" cy="121" r="1" fill="#5D6065"/>
<circle cx="1081" cy="151" r="1" fill="#5D6065"/>
<circle opacity="0.75" cx="1081" cy="91" r="1" fill="#5D6065"/>
<circle opacity="0.5" cx="1081" cy="61" r="1" fill="#5D6065"/>
<circle opacity="0.25" cx="1081" cy="31" r="1" fill="#5D6065"/>
<circle opacity="0.75" cx="1111" cy="151" r="1" fill="#5D6065"/>
<circle opacity="0.5" cx="1111" cy="121" r="1" fill="#5D6065"/>
<circle opacity="0.25" cx="1111" cy="91" r="1" fill="#5D6065"/>
<circle opacity="0.75" cx="1141" cy="151" r="1" fill="#5D6065"/>
<circle cx="1141" cy="121" r="1" fill="#5D6065"/>
<circle cx="1141" cy="91" r="1" fill="#5D6065"/>
<circle opacity="0.75" cx="1141" cy="61" r="1" fill="#5D6065"/>
<circle opacity="0.5" cx="1141" cy="31" r="1" fill="#5D6065"/>
<circle opacity="0.25" cx="1141" cy="1" r="1" fill="#5D6065"/>
<circle opacity="0.75" cx="1171" cy="151" r="1" fill="#5D6065"/>
<circle opacity="0.5" cx="1171" cy="121" r="1" fill="#5D6065"/>
<circle opacity="0.25" cx="1171" cy="91" r="1" fill="#5D6065"/>
<circle cx="1201" cy="151" r="1" fill="#5D6065"/>
<circle opacity="0.75" cx="1201" cy="121" r="1" fill="#5D6065"/>
<circle opacity="0.5" cx="1201" cy="91" r="1" fill="#5D6065"/>
<circle opacity="0.25" cx="1201" cy="61" r="1" fill="#5D6065"/>
<circle cx="1231" cy="121" r="1" fill="#5D6065"/>
<circle cx="1231" cy="151" r="1" fill="#5D6065"/>
<circle opacity="0.75" cx="1231" cy="91" r="1" fill="#5D6065"/>
<circle opacity="0.5" cx="1231" cy="61" r="1" fill="#5D6065"/>
<circle opacity="0.25" cx="1231" cy="31" r="1" fill="#5D6065"/>
<circle opacity="0.75" cx="1261" cy="151" r="1" fill="#5D6065"/>
<circle opacity="0.5" cx="1261" cy="121" r="1" fill="#5D6065"/>
<circle opacity="0.25" cx="1261" cy="91" r="1" fill="#5D6065"/>
<circle opacity="0.75" cx="1291" cy="151" r="1" fill="#5D6065"/>
<circle cx="1291" cy="121" r="1" fill="#5D6065"/>
<circle cx="1291" cy="91" r="1" fill="#5D6065"/>
<circle opacity="0.75" cx="1291" cy="61" r="1" fill="#5D6065"/>
<circle opacity="0.5" cx="1291" cy="31" r="1" fill="#5D6065"/>
<circle opacity="0.25" cx="1291" cy="1" r="1" fill="#5D6065"/>
<circle opacity="0.75" cx="1321" cy="151" r="1" fill="#5D6065"/>
<circle opacity="0.5" cx="1321" cy="121" r="1" fill="#5D6065"/>
<circle opacity="0.25" cx="1321" cy="91" r="1" fill="#5D6065"/>
<circle cx="1351" cy="151" r="1" fill="#5D6065"/>
<circle opacity="0.75" cx="1351" cy="121" r="1" fill="#5D6065"/>
<circle opacity="0.5" cx="1351" cy="91" r="1" fill="#5D6065"/>
<circle opacity="0.25" cx="1351" cy="61" r="1" fill="#5D6065"/>
<circle cx="1381" cy="121" r="1" fill="#5D6065"/>
<circle cx="1381" cy="151" r="1" fill="#5D6065"/>
<circle opacity="0.75" cx="1381" cy="91" r="1" fill="#5D6065"/>
<circle opacity="0.5" cx="1381" cy="61" r="1" fill="#5D6065"/>
<circle opacity="0.25" cx="1381" cy="31" r="1" fill="#5D6065"/>
<circle opacity="0.75" cx="1411" cy="151" r="1" fill="#5D6065"/>
<circle opacity="0.5" cx="1411" cy="121" r="1" fill="#5D6065"/>
<circle opacity="0.25" cx="1411" cy="91" r="1" fill="#5D6065"/>
<circle opacity="0.75" cx="1441" cy="151" r="1" fill="#5D6065"/>
<circle cx="1441" cy="121" r="1" fill="#5D6065"/>
<circle cx="1441" cy="91" r="1" fill="#5D6065"/>
<circle opacity="0.75" cx="1441" cy="61" r="1" fill="#5D6065"/>
<circle opacity="0.5" cx="1441" cy="31" r="1" fill="#5D6065"/>
<circle opacity="0.25" cx="1441" cy="1" r="1" fill="#5D6065"/>
<circle opacity="0.75" cx="1471" cy="151" r="1" fill="#5D6065"/>
<circle opacity="0.5" cx="1471" cy="121" r="1" fill="#5D6065"/>
<circle opacity="0.25" cx="1471" cy="91" r="1" fill="#5D6065"/>
<circle cx="1501" cy="151" r="1" fill="#5D6065"/>
<circle opacity="0.75" cx="1501" cy="121" r="1" fill="#5D6065"/>
<circle opacity="0.5" cx="1501" cy="91" r="1" fill="#5D6065"/>
<circle opacity="0.25" cx="1501" cy="61" r="1" fill="#5D6065"/>
<circle cx="1531" cy="121" r="1" fill="#5D6065"/>
<circle cx="1531" cy="151" r="1" fill="#5D6065"/>
<circle opacity="0.75" cx="1531" cy="91" r="1" fill="#5D6065"/>
<circle opacity="0.5" cx="1531" cy="61" r="1" fill="#5D6065"/>
<circle opacity="0.25" cx="1531" cy="31" r="1" fill="#5D6065"/>
<circle opacity="0.75" cx="1561" cy="151" r="1" fill="#5D6065"/>
<circle opacity="0.5" cx="1561" cy="121" r="1" fill="#5D6065"/>
<circle opacity="0.25" cx="1561" cy="91" r="1" fill="#5D6065"/>
<circle opacity="0.75" cx="1591" cy="151" r="1" fill="#5D6065"/>
<circle cx="1591" cy="121" r="1" fill="#5D6065"/>
<circle cx="1591" cy="91" r="1" fill="#5D6065"/>
<circle opacity="0.75" cx="1591" cy="61" r="1" fill="#5D6065"/>
<circle opacity="0.5" cx="1591" cy="31" r="1" fill="#5D6065"/>
<circle opacity="0.25" cx="1591" cy="1" r="1" fill="#5D6065"/>
<circle opacity="0.75" cx="1621" cy="151" r="1" fill="#5D6065"/>
<circle opacity="0.5" cx="1621" cy="121" r="1" fill="#5D6065"/>
<circle opacity="0.25" cx="1621" cy="91" r="1" fill="#5D6065"/>
<circle cx="1651" cy="151" r="1" fill="#5D6065"/>
<circle opacity="0.75" cx="1651" cy="121" r="1" fill="#5D6065"/>
<circle opacity="0.5" cx="1651" cy="91" r="1" fill="#5D6065"/>
<circle opacity="0.25" cx="1651" cy="61" r="1" fill="#5D6065"/>
<circle cx="1681" cy="121" r="1" fill="#5D6065"/>
<circle cx="1681" cy="151" r="1" fill="#5D6065"/>
<circle opacity="0.75" cx="1681" cy="91" r="1" fill="#5D6065"/>
<circle opacity="0.5" cx="1681" cy="61" r="1" fill="#5D6065"/>
<circle opacity="0.25" cx="1681" cy="31" r="1" fill="#5D6065"/>
<circle opacity="0.75" cx="1711" cy="151" r="1" fill="#5D6065"/>
<circle opacity="0.5" cx="1711" cy="121" r="1" fill="#5D6065"/>
<circle opacity="0.25" cx="1711" cy="91" r="1" fill="#5D6065"/>
<circle opacity="0.75" cx="1741" cy="151" r="1" fill="#5D6065"/>
<circle cx="1741" cy="121" r="1" fill="#5D6065"/>
<circle cx="1741" cy="91" r="1" fill="#5D6065"/>
<circle opacity="0.75" cx="1741" cy="61" r="1" fill="#5D6065"/>
<circle opacity="0.5" cx="1741" cy="31" r="1" fill="#5D6065"/>
<circle opacity="0.25" cx="1741" cy="1" r="1" fill="#5D6065"/>
<circle opacity="0.75" cx="1771" cy="151" r="1" fill="#5D6065"/>
<circle opacity="0.5" cx="1771" cy="121" r="1" fill="#5D6065"/>
<circle opacity="0.25" cx="1771" cy="91" r="1" fill="#5D6065"/>
<circle cx="1801" cy="151" r="1" fill="#5D6065"/>
<circle opacity="0.75" cx="1801" cy="121" r="1" fill="#5D6065"/>
<circle opacity="0.5" cx="1801" cy="91" r="1" fill="#5D6065"/>
<circle opacity="0.25" cx="1801" cy="61" r="1" fill="#5D6065"/>
<circle cx="1831" cy="121" r="1" fill="#5D6065"/>
<circle cx="1831" cy="151" r="1" fill="#5D6065"/>
<circle opacity="0.75" cx="1831" cy="91" r="1" fill="#5D6065"/>
<circle opacity="0.5" cx="1831" cy="61" r="1" fill="#5D6065"/>
<circle opacity="0.25" cx="1831" cy="31" r="1" fill="#5D6065"/>
<circle opacity="0.75" cx="1861" cy="151" r="1" fill="#5D6065"/>
<circle opacity="0.5" cx="1861" cy="121" r="1" fill="#5D6065"/>
<circle opacity="0.25" cx="1861" cy="91" r="1" fill="#5D6065"/>
<circle opacity="0.75" cx="1891" cy="151" r="1" fill="#5D6065"/>
<circle cx="1891" cy="121" r="1" fill="#5D6065"/>
<circle cx="1891" cy="91" r="1" fill="#5D6065"/>
<circle opacity="0.75" cx="1891" cy="61" r="1" fill="#5D6065"/>
<circle opacity="0.5" cx="1891" cy="31" r="1" fill="#5D6065"/>
<circle opacity="0.25" cx="1891" cy="1" r="1" fill="#5D6065"/>
<circle opacity="0.75" cx="1921" cy="151" r="1" fill="#5D6065"/>
<circle opacity="0.5" cx="1921" cy="121" r="1" fill="#5D6065"/>
<circle opacity="0.25" cx="1921" cy="91" r="1" fill="#5D6065"/>
<circle cx="1951" cy="151" r="1" fill="#5D6065"/>
<circle opacity="0.75" cx="1951" cy="121" r="1" fill="#5D6065"/>
<circle opacity="0.5" cx="1951" cy="91" r="1" fill="#5D6065"/>
<circle opacity="0.25" cx="1951" cy="61" r="1" fill="#5D6065"/>
<circle cx="1981" cy="121" r="1" fill="#5D6065"/>
<circle cx="1981" cy="151" r="1" fill="#5D6065"/>
<circle opacity="0.75" cx="1981" cy="91" r="1" fill="#5D6065"/>
<circle opacity="0.5" cx="1981" cy="61" r="1" fill="#5D6065"/>
<circle opacity="0.25" cx="1981" cy="31" r="1" fill="#5D6065"/>
</svg>
