<svg width="185" height="23" viewBox="0 0 185 23" fill="none" xmlns="http://www.w3.org/2000/svg">
<path d="M8.49586 0H5.40169L0 5.30927V8.35051L1.12229 9.44329L9.60767 1.10309L8.49586 0Z" fill="#E6E7E8"/>
<path d="M23.4004 14.6495V17.6907L17.9987 23H14.9045L13.7927 21.8969L22.2781 13.5567L23.4004 14.6495Z" fill="#E6E7E8"/>
<path d="M0 14.6495V17.6907L5.40169 23H8.49586L9.60767 21.8969L1.12229 13.5567L0 14.6495Z" fill="#E6E7E8"/>
<path d="M14.9045 0H17.9987L23.4004 5.30927V8.35051L22.2781 9.44329L13.7927 1.10309L14.9045 0Z" fill="#E6E7E8"/>
<path d="M17.642 10.1959L13.027 5.65979H10.3838L5.7688 10.2062V12.7938L10.3838 17.3299L13.027 17.3402L17.642 12.8041V10.1959Z" fill="#E6E7E8"/>
<path d="M66.8341 3.14428H57.0272V20.3401H66.8341L69.8968 17.3298V13.2783L68.3445 11.7422L69.8968 10.2061V6.15459L66.8341 3.13397V3.14428ZM67.1907 16.5773L65.8167 17.9278H59.471V13.0103H66.1419L67.2641 14.1133V16.3814C67.2641 16.4535 67.2327 16.5257 67.1802 16.5773H67.1907ZM67.2746 9.37108L66.1523 10.4742H59.4815V5.55665H65.8272L67.2851 6.98964V9.37108H67.2746Z" fill="#E6E7E8"/>
<path d="M155.516 6.8866L156.89 5.53608H161.841L163.299 6.96907L165.029 5.25773L162.869 3.12371H162.837L155.883 3.1134H155.852L152.8 6.13402V17.3299L155.852 20.3402H155.873H162.827H162.848L165.019 18.1959L163.288 16.4845L161.83 17.9175H156.88L155.422 16.4845V7.10309C155.422 7.02062 155.453 6.94845 155.506 6.8969L155.516 6.8866Z" fill="#E6E7E8"/>
<path d="M95.1851 5.54634H99.7058V20.3608H102.16V5.54634H106.974V3.13397H94.881V5.25768C94.881 5.42263 95.0173 5.54634 95.1747 5.54634H95.1851Z" fill="#E6E7E8"/>
<path d="M86.1229 5.5464L87.5808 6.97938L89.3114 5.26805L87.1403 3.12372H80.2492L77.1865 6.14433V9.64949L86.6263 15.0103V17.2165L85.9026 17.9381H80.0919L78.6339 16.5051L76.9033 18.2165L79.0849 20.3608H86.92L89.0912 18.2165V13.6186L79.8296 8.35052V6.97938L81.2037 5.61856C81.2037 5.61856 81.319 5.53609 81.3925 5.53609H86.1334L86.1229 5.5464Z" fill="#E6E7E8"/>
<path d="M46.4755 3.12372H40.0879L35.3994 20.3505H37.9377L39.0495 16.268H47.5139L48.6257 20.3505H51.164L46.4755 3.12372ZM46.8531 13.8557H39.6998L41.9549 5.56701H44.5875L46.8426 13.8557H46.8531Z" fill="#E6E7E8"/>
<path d="M121.743 12.9381H122.812L123.127 12.6185L125.875 9.91748V6.1649L122.812 3.14429H112.995V20.3505H115.449V12.9278H118.911L123.263 20.3505H126.095L121.743 12.9278V12.9381ZM115.743 10.5257C115.575 10.5257 115.449 10.3917 115.449 10.2268V5.56697H121.795L123.253 6.99995V9.08243L121.795 10.5154H115.753L115.743 10.5257Z" fill="#E6E7E8"/>
<path d="M142.605 3.12372H136.217L131.529 20.3505H134.067L135.179 16.268H143.643L144.755 20.3505H147.293L142.605 3.12372ZM142.982 13.8557H135.829L138.084 5.56701H140.717L142.972 13.8557H142.982Z" fill="#E6E7E8"/>
<path d="M182.902 3.12372H173.63H171.113H170.819V3.42269V5.5464H175.634V20.3608H178.088V5.5464H182.902V3.12372Z" fill="#E6E7E8"/>
</svg>
