<svg width="24" height="23" viewBox="0 0 24 23" fill="none" xmlns="http://www.w3.org/2000/svg">
<path d="M8.49586 0H5.40169L0 5.30927V8.35051L1.12229 9.44329L9.60767 1.10309L8.49586 0Z" fill="#E6E7E8"/>
<path d="M23.4004 14.6495V17.6907L17.9987 23H14.9045L13.7927 21.8969L22.2781 13.5567L23.4004 14.6495Z" fill="#E6E7E8"/>
<path d="M0 14.6495V17.6907L5.40169 23H8.49586L9.60767 21.8969L1.12229 13.5567L0 14.6495Z" fill="#E6E7E8"/>
<path d="M14.9045 0H17.9987L23.4004 5.30927V8.35051L22.2781 9.44329L13.7927 1.10309L14.9045 0Z" fill="#E6E7E8"/>
<path d="M17.642 10.1959L13.027 5.65979H10.3838L5.7688 10.2062V12.7938L10.3838 17.3299L13.027 17.3402L17.642 12.8041V10.1959Z" fill="#E6E7E8"/>
</svg>
