<svg width="32" height="32" viewBox="0 0 32 32" fill="none" xmlns="http://www.w3.org/2000/svg">
<rect x="0.5" y="0.5" width="31" height="31" rx="5.5" fill="#195A41" fill-opacity="0.3"/>
<rect x="0.5" y="0.5" width="31" height="31" rx="5.5" stroke="#2A5746"/>
<path fill-rule="evenodd" clip-rule="evenodd" d="M24.8206 7H8.16779L12.9097 12.6137C13.6972 11.9191 14.7294 11.5 15.86 11.5C18.335 11.5 20.3403 13.5138 20.3403 16C20.3403 17.1222 19.9325 18.1459 19.2575 18.9334L24.8206 23.7428V7ZM22.6269 25L18.2197 19.825C17.5334 20.2525 16.7262 20.5 15.8572 20.5C13.3822 20.5 11.3769 18.4862 11.3769 16C11.3769 15.1366 11.6187 14.3322 12.0378 13.6459L6.89935 9.15156V25H22.6269Z" fill="white"/>
</svg>
