<svg width="32" height="32" viewBox="0 0 32 32" fill="none" xmlns="http://www.w3.org/2000/svg">
<rect x="0.5" y="0.5" width="31" height="31" rx="5.5" fill="#5E12A0" fill-opacity="0.3"/>
<rect x="0.5" y="0.5" width="31" height="31" rx="5.5" stroke="#490E7C"/>
<path d="M25.9516 8.86176C25.732 8.00478 25.0143 7.1478 23.7288 6.19441C22.6951 5.43385 21.6024 5 20.7294 5C20.5526 5 20.3973 5.01607 20.2366 5.04821C19.8403 5.12855 19.4921 5.41778 19.2672 5.85698C18.9994 6.37652 18.9351 7.06746 19.1065 7.4906C19.1707 7.61914 19.2511 7.77983 19.3421 7.92444C18.5012 8.44399 18.0245 8.5886 17.9603 8.60467C20.1509 9.34917 21.9774 10.9024 23.1182 12.9217L23.1343 12.7289C23.1825 12.1933 23.3432 11.5827 23.5628 10.9507C23.7824 11.0149 24.0073 11.0471 24.2269 11.0471C24.8161 11.0471 25.3196 10.806 25.6409 10.3668C25.957 9.93299 26.0855 9.34917 25.9409 8.86176H25.9516Z" fill="#490E7C"/>
<path d="M23.6646 10.4793C25.1107 10.881 25.6945 9.75089 25.5071 8.99033C25.2982 8.22976 24.634 7.45312 23.461 6.58007C22.2881 5.70702 21.0936 5.35352 20.3331 5.5142C19.5725 5.67489 19.3475 6.85323 19.5404 7.3085C19.6207 7.48526 19.7921 7.74235 20.0331 8.03694C19.7332 8.24582 19.444 8.40651 19.2083 8.55648C20.6705 9.22064 21.9399 10.2544 22.8933 11.5452C23.0058 11.1113 23.1611 10.7204 23.3057 10.3829C23.4182 10.399 23.5414 10.4311 23.6699 10.4793H23.6646Z" fill="url(#paint0_radial_1164_7587)"/>
<path d="M15.3946 26.3174C20.2955 26.3174 24.2697 22.2735 24.2697 17.2816C24.2697 12.2897 20.2955 8.25122 15.3946 8.25122C10.4938 8.25122 6.5249 12.2951 6.5249 17.2816C6.5249 22.2682 10.4991 26.3174 15.4 26.3174H15.3946Z" fill="url(#paint1_radial_1164_7587)"/>
<path opacity="0.6" d="M24.7786 8.25123C23.5735 6.9604 22.5558 6.61761 21.3346 6.34445C20.3813 6.11949 20.6384 5.56781 21.7953 5.68029C21.2382 5.48747 20.7133 5.43926 20.3331 5.51961C19.5725 5.68029 19.3475 6.85864 19.5403 7.31391C19.6207 7.49066 19.7921 7.74775 20.0331 8.04234C19.6046 8.33157 19.2404 8.54581 18.9405 8.7065C19.0851 8.77077 19.2565 8.85111 19.4654 8.96359C20.0063 9.25282 20.5901 9.74023 20.5901 9.74023C19.701 8.96359 19.8938 8.61009 21.115 7.73704C21.4953 7.46388 22.197 7.49601 22.8451 7.83345C23.4985 8.17089 24.2591 9.02787 24.2591 9.02787L23.5307 10.4526C23.5789 10.4687 23.6271 10.4847 23.6753 10.5008C24.1359 10.6293 24.5001 10.5972 24.784 10.4847C25.1161 10.2758 25.9891 9.56348 24.784 8.25658L24.7786 8.25123Z" fill="#A98698"/>
<path d="M21.3186 7.11576C21.6346 7.2443 22.047 7.46926 22.5559 7.81205C23.1611 8.21376 23.6806 8.66903 24.0181 9.02253C23.461 9.76704 23.0968 10.7847 22.8772 11.4971C22.9897 11.6577 23.1129 11.8184 23.2254 11.9845C23.3378 11.5828 23.5253 10.9829 23.7824 10.383C23.8467 10.3991 23.927 10.3991 24.002 10.3991C24.1948 10.3991 24.4144 10.3669 24.5912 10.2223C24.7197 10.1259 24.859 9.94914 24.8429 9.62242C24.8429 9.31712 24.6073 8.92612 24.1145 8.46014C23.7663 8.12271 23.2896 7.74778 22.8129 7.41034C21.4471 6.48909 20.4937 6.232 20.0653 6.66584C19.7814 6.95507 19.8135 7.31393 19.9046 7.57103C19.3957 7.90846 18.9673 8.15484 18.6834 8.31553C18.8762 8.3798 19.0476 8.46014 19.2404 8.54048C19.7492 8.26732 20.4777 7.79598 21.3186 7.11576ZM24.318 9.4296C24.3662 9.50994 24.3823 9.59028 24.3823 9.63849C24.3823 9.7831 24.3341 9.83131 24.302 9.86345C24.2377 9.91165 24.1091 9.94379 24.002 9.94379C24.0984 9.75097 24.2109 9.59028 24.318 9.42424V9.4296ZM20.3973 7.01934C20.4455 6.97114 20.5741 6.939 20.7776 6.97114C20.6169 7.09969 20.4616 7.21217 20.3009 7.32464C20.2849 7.21217 20.3009 7.09969 20.3973 7.01934Z" fill="#490E7C"/>
<path d="M15.3946 7.71558C10.2046 7.71558 6 12.0005 6 17.2816C6 22.5627 10.2046 26.853 15.3946 26.853C20.5847 26.853 24.7893 22.5681 24.7893 17.2816C24.7893 11.9951 20.5686 7.71558 15.3946 7.71558ZM15.3946 26.3174C10.4938 26.3174 6.5249 22.2789 6.5249 17.2816C6.5249 12.2843 10.4938 8.25119 15.3946 8.25119C20.2955 8.25119 24.2697 12.2897 24.2697 17.287C24.2697 22.2842 20.2848 26.3227 15.3946 26.3227V26.3174Z" fill="#490E7C"/>
<path opacity="0.6" d="M15.3946 26.3174C20.2955 26.3174 24.2697 22.2735 24.2697 17.2816C24.2697 12.2897 20.2955 8.25122 15.3946 8.25122C10.4938 8.25122 6.5249 12.2951 6.5249 17.2816C6.5249 22.2682 10.4991 26.3174 15.4 26.3174H15.3946Z" fill="url(#paint2_linear_1164_7587)"/>
<path opacity="0.6" d="M15.3357 25.2194C10.4937 24.4267 7.21043 19.7883 8.00313 14.8607C8.35128 12.6807 9.43322 10.8222 10.9544 9.47778C8.73156 10.7847 7.08188 13.0664 6.63732 15.8462C5.86068 20.7738 9.14399 25.4176 13.9699 26.2049C16.6693 26.6549 19.2724 25.8032 21.1899 24.1214C19.492 25.123 17.4299 25.5622 15.3303 25.2194H15.3357Z" fill="#A98698"/>
<path opacity="0.6" d="M16.8086 8.3798C14.5697 8.01022 12.3951 8.52441 10.6169 9.67062C10.5848 9.70276 10.5526 9.7349 10.5526 9.7349C11.2329 9.31712 12.2345 8.94219 12.2345 8.94219C9.66353 10.4633 8.87082 12.1934 8.87082 12.1934C9.87241 10.2223 12.8076 8.82971 15.1107 8.7333C17.4138 8.63689 18.9189 9.33319 20.7614 10.8329C22.6039 12.354 23.7126 15.4552 23.6002 17.9137C23.5037 20.3722 22.2343 22.3593 22.2343 22.3593C23.1074 21.2131 23.6323 20.3722 23.9644 19.5152C24.0286 19.2581 24.0929 18.9956 24.1251 18.7225C24.9178 13.8109 21.6505 9.1725 16.8086 8.3798Z" fill="url(#paint3_linear_1164_7587)"/>
<path d="M23.8253 17.2012C23.8253 21.936 20.0492 25.7817 15.3948 25.7817C10.7403 25.7817 6.95352 21.9413 6.95352 17.2012H23.8253Z" fill="url(#paint4_linear_1164_7587)"/>
<g opacity="0.6">
<path opacity="0.6" d="M23.1611 17.2012C23.1611 21.8235 19.5725 25.6049 15.068 25.7817H15.4001C20.0492 25.7817 23.8306 21.936 23.8306 17.2012H23.1664H23.1611Z" fill="url(#paint5_linear_1164_7587)"/>
</g>
<g opacity="0.7">
<path opacity="0.7" d="M8.14258 17.2012H6.95352C6.95352 21.936 10.7296 25.7817 15.3841 25.7817C15.5929 25.7817 15.7804 25.7817 15.9732 25.7656C11.608 25.4442 8.14794 21.7271 8.14794 17.2012H8.14258Z" fill="url(#paint6_linear_1164_7587)"/>
</g>
<path d="M23.8092 17.2815C23.8092 16.2959 22.1274 15.7282 19.8886 15.5354C18.271 15.4068 16.632 15.5675 14.7627 16.1513C13.1452 16.6387 11.683 16.553 10.6225 16.4245C8.25506 16.1513 6.95352 16.1192 6.95352 17.2815C6.95352 18.9633 10.3172 21.0629 15.368 20.3345C17.9229 19.9649 19.2405 19.2043 20.7509 18.6848C22.3845 18.1331 23.8146 18.1492 23.8146 17.2761L23.8092 17.2815Z" fill="url(#paint7_linear_1164_7587)"/>
<path d="M18.1585 13.2108C18.9459 13.2108 19.5886 12.5574 19.5886 11.754C19.5886 10.9506 18.9512 10.2971 18.1585 10.2971C17.3658 10.2971 16.7285 10.9506 16.7285 11.754C16.7285 12.5574 17.3658 13.2108 18.1585 13.2108Z" fill="white"/>
<path d="M20.4938 14.2929C20.8258 14.2929 21.099 14.0198 21.099 13.677C21.099 13.3342 20.8312 13.061 20.4938 13.061C20.1563 13.061 19.8885 13.3342 19.8885 13.677C19.8885 14.0198 20.1563 14.2929 20.4938 14.2929Z" fill="white"/>
<g opacity="0.6">
<path opacity="0.6" d="M22.6522 10.5918H22.62C22.5236 10.5758 22.4594 10.4793 22.4754 10.3669C22.62 9.62236 23.2199 8.91 23.2521 8.87786C23.3163 8.79752 23.4449 8.79752 23.5038 8.86179C23.5841 8.92607 23.5841 9.05461 23.5199 9.11889C23.5038 9.13496 22.9468 9.79912 22.8236 10.4418C22.8075 10.5383 22.7272 10.5865 22.6468 10.5865L22.6522 10.5918Z" fill="url(#paint8_linear_1164_7587)"/>
</g>
<path opacity="0.2" d="M14.8109 24.0251C15.0573 24.0251 15.2554 23.8215 15.2554 23.5751C15.2554 23.3288 15.0573 23.1199 14.8109 23.1199C14.5645 23.1199 14.3663 23.3234 14.3663 23.5751C14.3663 23.8269 14.5645 24.0251 14.8109 24.0251Z" fill="white"/>
<g opacity="0.4">
<path opacity="0.6" d="M14.5537 23.8642C14.377 23.6874 14.377 23.3928 14.5537 23.2161C14.5859 23.1839 14.618 23.1679 14.6502 23.1357C14.5859 23.1518 14.5377 23.1839 14.4895 23.2322C14.3127 23.4089 14.3127 23.7035 14.4895 23.8802C14.6341 24.0249 14.8537 24.057 15.0304 23.9606C14.8698 24.0249 14.6823 23.9927 14.5537 23.8642Z" fill="url(#paint9_linear_1164_7587)"/>
</g>
<path opacity="0.3" d="M14.9662 23.4411C15.0198 23.4411 15.0626 23.3983 15.0626 23.3447C15.0626 23.2911 15.0198 23.2483 14.9662 23.2483C14.9126 23.2483 14.8698 23.2911 14.8698 23.3447C14.8698 23.3983 14.9126 23.4411 14.9662 23.4411Z" fill="white"/>
<path opacity="0.2" d="M17.1301 23.8C17.3765 23.8 17.5747 23.5964 17.5747 23.35C17.5747 23.1037 17.3765 22.8948 17.1301 22.8948C16.8838 22.8948 16.6856 23.0983 16.6856 23.35C16.6856 23.6018 16.8838 23.8 17.1301 23.8Z" fill="white"/>
<g opacity="0.4">
<path opacity="0.6" d="M16.873 23.6393C16.6962 23.4626 16.6962 23.168 16.873 22.9912C16.9051 22.9591 16.9373 22.943 16.9694 22.9109C16.9051 22.927 16.8569 22.9591 16.8087 23.0073C16.632 23.1841 16.632 23.4786 16.8087 23.6554C16.9533 23.8 17.1729 23.8321 17.3497 23.7357C17.189 23.8 17.0015 23.7679 16.873 23.6393Z" fill="url(#paint10_linear_1164_7587)"/>
</g>
<path opacity="0.3" d="M17.2854 23.2163C17.339 23.2163 17.3818 23.1734 17.3818 23.1198C17.3818 23.0663 17.339 23.0234 17.2854 23.0234C17.2319 23.0234 17.189 23.0663 17.189 23.1198C17.189 23.1734 17.2319 23.2163 17.2854 23.2163Z" fill="white"/>
<path opacity="0.2" d="M15.9838 24.8497C16.1659 24.8497 16.3159 24.6997 16.3159 24.5122C16.3159 24.3248 16.1659 24.1748 15.9838 24.1748C15.8017 24.1748 15.6517 24.3248 15.6517 24.5122C15.6517 24.6997 15.8017 24.8497 15.9838 24.8497Z" fill="white"/>
<g opacity="0.4">
<path opacity="0.6" d="M15.7909 24.7212C15.6623 24.5926 15.6623 24.3677 15.7909 24.2338C15.8069 24.2177 15.8391 24.2016 15.8551 24.1855C15.8069 24.2016 15.7748 24.2338 15.7427 24.2659C15.6141 24.3944 15.6141 24.6194 15.7427 24.7533C15.8551 24.8658 16.0105 24.8818 16.1551 24.8015C16.0265 24.8497 15.8873 24.8176 15.7909 24.7212Z" fill="url(#paint11_linear_1164_7587)"/>
</g>
<path opacity="0.3" d="M16.0963 24.3944C16.1338 24.3944 16.1606 24.3676 16.1606 24.3301C16.1606 24.2926 16.1338 24.2659 16.0963 24.2659C16.0588 24.2659 16.032 24.2926 16.032 24.3301C16.032 24.3676 16.0588 24.3944 16.0963 24.3944Z" fill="white"/>
<path opacity="0.2" d="M18.0298 24.6087C18.2119 24.6087 18.3619 24.4587 18.3619 24.2713C18.3619 24.0838 18.2119 23.9338 18.0298 23.9338C17.8477 23.9338 17.6977 24.0838 17.6977 24.2713C17.6977 24.4587 17.8477 24.6087 18.0298 24.6087Z" fill="white"/>
<g opacity="0.4">
<path opacity="0.6" d="M17.8423 24.4748C17.7138 24.3463 17.7138 24.1213 17.8423 23.9874C17.8584 23.9713 17.8905 23.9553 17.9066 23.9392C17.8584 23.9553 17.8262 23.9874 17.7941 24.0195C17.6656 24.1481 17.6656 24.3731 17.7941 24.507C17.9066 24.6194 18.0619 24.6355 18.2065 24.5552C18.078 24.6034 17.9387 24.5712 17.8423 24.4748Z" fill="url(#paint12_linear_1164_7587)"/>
</g>
<path opacity="0.3" d="M18.1422 24.1534C18.1797 24.1534 18.2065 24.1267 18.2065 24.0892C18.2065 24.0517 18.1797 24.0249 18.1422 24.0249C18.1047 24.0249 18.0779 24.0517 18.0779 24.0892C18.0779 24.1267 18.1047 24.1534 18.1422 24.1534Z" fill="white"/>
<path opacity="0.2" d="M12.9201 23.8642C13.3219 23.8642 13.6486 23.5322 13.6486 23.1197C13.6486 22.7073 13.3219 22.3752 12.9201 22.3752C12.5184 22.3752 12.1917 22.7073 12.1917 23.1197C12.1917 23.5322 12.5184 23.8642 12.9201 23.8642Z" fill="white"/>
<g opacity="0.4">
<path opacity="0.6" d="M12.5077 23.5856C12.2238 23.2964 12.2238 22.8251 12.5077 22.5358C12.5559 22.4876 12.6041 22.4555 12.6684 22.4233C12.572 22.4555 12.4916 22.5198 12.4166 22.584C12.1328 22.8733 12.1328 23.3446 12.4166 23.6338C12.6523 23.8748 13.0219 23.9231 13.3058 23.7463C13.038 23.8588 12.7166 23.8106 12.5131 23.5856H12.5077Z" fill="url(#paint13_linear_1164_7587)"/>
</g>
<path opacity="0.3" d="M13.1718 22.8949C13.2575 22.8949 13.3324 22.8199 13.3324 22.7342C13.3324 22.6485 13.2628 22.5735 13.1718 22.5735C13.0807 22.5735 13.0111 22.6485 13.0111 22.7342C13.0111 22.8199 13.0807 22.8949 13.1718 22.8949Z" fill="white"/>
<path opacity="0.2" d="M19.444 22.0378C19.8457 22.0378 20.1724 21.7057 20.1724 21.2933C20.1724 20.8809 19.8457 20.5488 19.444 20.5488C19.0423 20.5488 18.7155 20.8809 18.7155 21.2933C18.7155 21.7057 19.0423 22.0378 19.444 22.0378Z" fill="white"/>
<g opacity="0.4">
<path opacity="0.6" d="M19.0153 21.7592C18.7315 21.47 18.7315 20.9986 19.0153 20.7094C19.0635 20.6612 19.1117 20.6291 19.176 20.5969C19.0796 20.6291 18.9993 20.6933 18.9243 20.7576C18.6404 21.0468 18.6404 21.5182 18.9243 21.8074C19.1599 22.0484 19.5295 22.0966 19.8134 21.9199C19.5456 22.0324 19.2403 21.9842 19.0207 21.7592H19.0153Z" fill="url(#paint14_linear_1164_7587)"/>
</g>
<path opacity="0.3" d="M19.6956 21.0684C19.7813 21.0684 19.8563 20.9935 19.8563 20.9078C19.8563 20.8221 19.7867 20.7471 19.6956 20.7471C19.6046 20.7471 19.5349 20.8221 19.5349 20.9078C19.5349 20.9935 19.6046 21.0684 19.6956 21.0684Z" fill="white"/>
<defs>
<radialGradient id="paint0_radial_1164_7587" cx="0" cy="0" r="1" gradientUnits="userSpaceOnUse" gradientTransform="translate(24.6983 7.49329) scale(7.09686 7.22541)">
<stop stop-color="#FFEAFF" stop-opacity="0.6"/>
<stop offset="0.68" stop-color="#A087C9"/>
<stop offset="1" stop-color="#10002F"/>
</radialGradient>
<radialGradient id="paint1_radial_1164_7587" cx="0" cy="0" r="1" gradientUnits="userSpaceOnUse" gradientTransform="translate(20.7799 10.9132) scale(17.3592 17.6752)">
<stop stop-color="#FFEAFF" stop-opacity="0.6"/>
<stop offset="0.68" stop-color="#A087C9"/>
<stop offset="1" stop-color="#10002F"/>
</radialGradient>
<linearGradient id="paint2_linear_1164_7587" x1="13.9271" y1="26.1942" x2="16.8676" y2="8.37441" gradientUnits="userSpaceOnUse">
<stop stop-color="#81FFFF"/>
<stop offset="0.62" stop-color="white" stop-opacity="0"/>
</linearGradient>
<linearGradient id="paint3_linear_1164_7587" x1="21.7309" y1="11.24" x2="14.2698" y2="17.9565" gradientUnits="userSpaceOnUse">
<stop offset="0.29" stop-color="white"/>
<stop offset="0.78" stop-color="white" stop-opacity="0"/>
</linearGradient>
<linearGradient id="paint4_linear_1164_7587" x1="6.95352" y1="21.4968" x2="23.8253" y2="21.4968" gradientUnits="userSpaceOnUse">
<stop stop-color="#0002E9"/>
<stop offset="1" stop-color="#FF00C7"/>
</linearGradient>
<linearGradient id="paint5_linear_1164_7587" x1="24.6662" y1="18.0046" x2="15.3304" y2="26.6708" gradientUnits="userSpaceOnUse">
<stop offset="0.29" stop-color="white"/>
<stop offset="0.78" stop-color="white" stop-opacity="0"/>
</linearGradient>
<linearGradient id="paint6_linear_1164_7587" x1="6.95352" y1="21.4968" x2="15.9679" y2="21.4968" gradientUnits="userSpaceOnUse">
<stop stop-color="#000292"/>
<stop offset="1" stop-color="#7D00C7"/>
</linearGradient>
<linearGradient id="paint7_linear_1164_7587" x1="6.96959" y1="17.9938" x2="23.8092" y2="17.9938" gradientUnits="userSpaceOnUse">
<stop stop-color="#000292"/>
<stop offset="1" stop-color="#BE00C7"/>
</linearGradient>
<linearGradient id="paint8_linear_1164_7587" x1="23.5574" y1="8.81359" x2="22.3147" y2="10.7954" gradientUnits="userSpaceOnUse">
<stop offset="0.29" stop-color="white"/>
<stop offset="0.78" stop-color="white" stop-opacity="0"/>
</linearGradient>
<linearGradient id="paint9_linear_1164_7587" x1="14.3609" y1="23.5749" x2="15.0304" y2="23.5749" gradientUnits="userSpaceOnUse">
<stop offset="0.29" stop-color="white"/>
<stop offset="0.78" stop-color="white" stop-opacity="0"/>
</linearGradient>
<linearGradient id="paint10_linear_1164_7587" x1="16.6748" y1="23.3501" x2="17.3497" y2="23.3501" gradientUnits="userSpaceOnUse">
<stop offset="0.29" stop-color="white"/>
<stop offset="0.78" stop-color="white" stop-opacity="0"/>
</linearGradient>
<linearGradient id="paint11_linear_1164_7587" x1="15.6462" y1="24.5176" x2="16.1551" y2="24.5176" gradientUnits="userSpaceOnUse">
<stop offset="0.29" stop-color="white"/>
<stop offset="0.78" stop-color="white" stop-opacity="0"/>
</linearGradient>
<linearGradient id="paint12_linear_1164_7587" x1="17.687" y1="24.2766" x2="18.1958" y2="24.2766" gradientUnits="userSpaceOnUse">
<stop offset="0.29" stop-color="white"/>
<stop offset="0.78" stop-color="white" stop-opacity="0"/>
</linearGradient>
<linearGradient id="paint13_linear_1164_7587" x1="12.1917" y1="23.1411" x2="13.2897" y2="23.1411" gradientUnits="userSpaceOnUse">
<stop offset="0.29" stop-color="white"/>
<stop offset="0.78" stop-color="white" stop-opacity="0"/>
</linearGradient>
<linearGradient id="paint14_linear_1164_7587" x1="18.7047" y1="21.3146" x2="19.8027" y2="21.3146" gradientUnits="userSpaceOnUse">
<stop offset="0.29" stop-color="white"/>
<stop offset="0.78" stop-color="white" stop-opacity="0"/>
</linearGradient>
</defs>
</svg>
