<svg width="32" height="32" viewBox="0 0 32 32" fill="none" xmlns="http://www.w3.org/2000/svg">
<rect width="32" height="32" rx="6" fill="#305A73" fill-opacity="0.15"/>
<rect x="0.5" y="0.5" width="31" height="31" rx="5.5" stroke="#4C7892" stroke-opacity="0.4"/>
<path fill-rule="evenodd" clip-rule="evenodd" d="M15.7951 24.77C18.4282 24.77 20.7936 23.6257 22.4208 21.8047C21.6641 21.1465 20.5229 21.1065 19.717 21.7586L19.5632 21.8816C18.0868 23.0721 15.9397 22.8967 14.6755 21.4818C13.9865 20.7097 12.8084 20.6328 12.024 21.3034L10.2491 22.826C11.7687 24.041 13.6973 24.77 15.7951 24.77ZM18.6774 20.4667C20.0831 19.3316 22.0579 19.3747 23.4082 20.4667C24.2172 19.1286 24.6817 17.5599 24.6817 15.8835C24.6817 14.0194 24.1065 12.2907 23.1283 10.8604C22.4947 10.725 21.8118 10.8819 21.2919 11.3433L21.1443 11.4756C19.7263 12.7336 17.57 12.6567 16.2442 11.3033C15.5214 10.5651 14.3402 10.5405 13.5866 11.2479L11.5226 13.192L10.3876 11.9831L12.4515 10.0391C13.8634 8.71333 16.0751 8.75639 17.4316 10.1406C18.1391 10.8634 19.2895 10.9034 20.0462 10.2329L20.1938 10.1006C20.6521 9.69457 21.1843 9.41773 21.741 9.27316C20.1631 7.86128 18.0775 7 15.7951 7C11.2827 7 7.55764 10.3621 6.98551 14.7146C8.35432 14.0563 10.0461 14.3116 11.1627 15.4528C11.8671 16.1757 13.0021 16.2526 13.7988 15.6312L14.9523 14.73C16.4042 13.5949 18.4559 13.6503 19.8432 14.8622L22.0917 16.8216L21.0028 18.0705L18.7543 16.1111C17.9637 15.4221 16.7979 15.3913 15.9736 16.0373L14.8201 16.9385C13.359 18.0797 11.2734 17.9413 9.97845 16.6125C9.22483 15.8404 7.99443 15.8127 7.20698 16.551L6.95782 16.7847C7.14546 18.6396 7.90215 20.3283 9.05257 21.6694L10.9474 20.0453C12.4177 18.7841 14.6263 18.9318 15.9151 20.3775C16.5888 21.1311 17.7361 21.2265 18.5236 20.5897L18.6774 20.4667Z" fill="white"/>
</svg>
