<svg width="2008" height="418" viewBox="0 0 2008 418" fill="none" xmlns="http://www.w3.org/2000/svg">
<circle opacity="0.75" cx="1" cy="313" r="1" fill="#5D6065"/>
<circle opacity="0.5" cx="1" cy="283" r="1" fill="#5D6065"/>
<circle opacity="0.25" cx="1" cy="253" r="1" fill="#5D6065"/>
<circle opacity="0.75" cx="31" cy="313" r="1" fill="#5D6065"/>
<circle cx="31" cy="283" r="1" fill="#5D6065"/>
<circle cx="31" cy="253" r="1" fill="#5D6065"/>
<circle opacity="0.75" cx="31" cy="223" r="1" fill="#5D6065"/>
<circle opacity="0.5" cx="31" cy="193" r="1" fill="#5D6065"/>
<circle opacity="0.25" cx="31" cy="163" r="1" fill="#5D6065"/>
<circle opacity="0.75" cx="61" cy="313" r="1" fill="#5D6065"/>
<circle opacity="0.5" cx="61" cy="283" r="1" fill="#5D6065"/>
<circle opacity="0.25" cx="61" cy="253" r="1" fill="#5D6065"/>
<circle opacity="0.75" cx="91" cy="313" r="1" fill="#5D6065"/>
<circle opacity="0.5" cx="91" cy="283" r="1" fill="#5D6065"/>
<circle opacity="0.25" cx="91" cy="253" r="1" fill="#5D6065"/>
<circle opacity="0.75" cx="121" cy="313" r="1" fill="#5D6065"/>
<circle cx="121" cy="283" r="1" fill="#5D6065"/>
<circle cx="121" cy="253" r="1" fill="#5D6065"/>
<circle opacity="0.75" cx="121" cy="223" r="1" fill="#5D6065"/>
<circle opacity="0.5" cx="121" cy="193" r="1" fill="#5D6065"/>
<circle opacity="0.25" cx="121" cy="163" r="1" fill="#5D6065"/>
<circle opacity="0.75" cx="151" cy="313" r="1" fill="#5D6065"/>
<circle opacity="0.5" cx="151" cy="283" r="1" fill="#5D6065"/>
<circle opacity="0.25" cx="151" cy="253" r="1" fill="#5D6065"/>
<circle cx="181" cy="313" r="1" fill="#5D6065"/>
<circle opacity="0.75" cx="181" cy="283" r="1" fill="#5D6065"/>
<circle opacity="0.5" cx="181" cy="253" r="1" fill="#5D6065"/>
<circle opacity="0.25" cx="181" cy="223" r="1" fill="#5D6065"/>
<circle cx="211" cy="283" r="1" fill="#5D6065"/>
<circle cx="211" cy="313" r="1" fill="#5D6065"/>
<circle opacity="0.75" cx="211" cy="253" r="1" fill="#5D6065"/>
<circle opacity="0.5" cx="211" cy="223" r="1" fill="#5D6065"/>
<circle opacity="0.25" cx="211" cy="193" r="1" fill="#5D6065"/>
<circle opacity="0.75" cx="241" cy="313" r="1" fill="#5D6065"/>
<circle opacity="0.5" cx="241" cy="283" r="1" fill="#5D6065"/>
<circle opacity="0.25" cx="241" cy="253" r="1" fill="#5D6065"/>
<circle opacity="0.75" cx="271" cy="313" r="1" fill="#5D6065"/>
<circle cx="271" cy="283" r="1" fill="#5D6065"/>
<circle cx="271" cy="253" r="1" fill="#5D6065"/>
<circle opacity="0.75" cx="271" cy="223" r="1" fill="#5D6065"/>
<circle opacity="0.5" cx="271" cy="193" r="1" fill="#5D6065"/>
<circle opacity="0.25" cx="271" cy="163" r="1" fill="#5D6065"/>
<circle cx="301" cy="283" r="1" fill="#5D6065"/>
<circle cx="301" cy="313" r="1" fill="#5D6065"/>
<circle opacity="0.75" cx="301" cy="253" r="1" fill="#5D6065"/>
<circle opacity="0.5" cx="301" cy="223" r="1" fill="#5D6065"/>
<circle opacity="0.25" cx="301" cy="193" r="1" fill="#5D6065"/>
<circle opacity="0.75" cx="331" cy="313" r="1" fill="#5D6065"/>
<circle opacity="0.5" cx="331" cy="283" r="1" fill="#5D6065"/>
<circle opacity="0.25" cx="331" cy="253" r="1" fill="#5D6065"/>
<circle cx="361" cy="313" r="1" fill="#5D6065"/>
<circle opacity="0.75" cx="361" cy="283" r="1" fill="#5D6065"/>
<circle opacity="0.5" cx="361" cy="253" r="1" fill="#5D6065"/>
<circle opacity="0.25" cx="361" cy="223" r="1" fill="#5D6065"/>
<circle cx="391" cy="313" r="1" fill="#5D6065"/>
<circle opacity="0.75" cx="391" cy="283" r="1" fill="#5D6065"/>
<circle opacity="0.5" cx="391" cy="253" r="1" fill="#5D6065"/>
<circle opacity="0.25" cx="391" cy="223" r="1" fill="#5D6065"/>
<circle cx="421" cy="283" r="1" fill="#5D6065"/>
<circle cx="421" cy="313" r="1" fill="#5D6065"/>
<circle opacity="0.75" cx="421" cy="253" r="1" fill="#5D6065"/>
<circle opacity="0.5" cx="421" cy="223" r="1" fill="#5D6065"/>
<circle opacity="0.25" cx="421" cy="193" r="1" fill="#5D6065"/>
<circle opacity="0.75" cx="451" cy="313" r="1" fill="#5D6065"/>
<circle opacity="0.5" cx="451" cy="283" r="1" fill="#5D6065"/>
<circle opacity="0.25" cx="451" cy="253" r="1" fill="#5D6065"/>
<circle opacity="0.75" cx="481" cy="313" r="1" fill="#5D6065"/>
<circle cx="481" cy="283" r="1" fill="#5D6065"/>
<circle cx="481" cy="253" r="1" fill="#5D6065"/>
<circle opacity="0.75" cx="481" cy="223" r="1" fill="#5D6065"/>
<circle opacity="0.5" cx="481" cy="193" r="1" fill="#5D6065"/>
<circle opacity="0.25" cx="481" cy="163" r="1" fill="#5D6065"/>
<circle opacity="0.75" cx="511" cy="313" r="1" fill="#5D6065"/>
<circle opacity="0.5" cx="511" cy="283" r="1" fill="#5D6065"/>
<circle opacity="0.25" cx="511" cy="253" r="1" fill="#5D6065"/>
<circle opacity="0.75" cx="541" cy="313" r="1" fill="#5D6065"/>
<circle opacity="0.5" cx="541" cy="283" r="1" fill="#5D6065"/>
<circle opacity="0.25" cx="541" cy="253" r="1" fill="#5D6065"/>
<circle cx="571" cy="313" r="1" fill="#5D6065"/>
<circle opacity="0.75" cx="571" cy="283" r="1" fill="#5D6065"/>
<circle opacity="0.5" cx="571" cy="253" r="1" fill="#5D6065"/>
<circle opacity="0.25" cx="571" cy="223" r="1" fill="#5D6065"/>
<circle cx="601" cy="283" r="1" fill="#5D6065"/>
<circle cx="601" cy="313" r="1" fill="#5D6065"/>
<circle opacity="0.75" cx="601" cy="253" r="1" fill="#5D6065"/>
<circle opacity="0.5" cx="601" cy="223" r="1" fill="#5D6065"/>
<circle opacity="0.25" cx="601" cy="193" r="1" fill="#5D6065"/>
<circle opacity="0.75" cx="631" cy="313" r="1" fill="#5D6065"/>
<circle opacity="0.5" cx="631" cy="283" r="1" fill="#5D6065"/>
<circle opacity="0.25" cx="631" cy="253" r="1" fill="#5D6065"/>
<circle opacity="0.75" cx="661" cy="313" r="1" fill="#5D6065"/>
<circle cx="661" cy="283" r="1" fill="#5D6065"/>
<circle cx="661" cy="253" r="1" fill="#5D6065"/>
<circle opacity="0.75" cx="661" cy="223" r="1" fill="#5D6065"/>
<circle opacity="0.5" cx="661" cy="193" r="1" fill="#5D6065"/>
<circle opacity="0.25" cx="661" cy="163" r="1" fill="#5D6065"/>
<circle opacity="0.75" cx="691" cy="313" r="1" fill="#5D6065"/>
<circle opacity="0.5" cx="691" cy="283" r="1" fill="#5D6065"/>
<circle opacity="0.25" cx="691" cy="253" r="1" fill="#5D6065"/>
<circle cx="721" cy="313" r="1" fill="#5D6065"/>
<circle opacity="0.75" cx="721" cy="283" r="1" fill="#5D6065"/>
<circle opacity="0.5" cx="721" cy="253" r="1" fill="#5D6065"/>
<circle opacity="0.25" cx="721" cy="223" r="1" fill="#5D6065"/>
<circle cx="751" cy="283" r="1" fill="#5D6065"/>
<circle cx="751" cy="313" r="1" fill="#5D6065"/>
<circle opacity="0.75" cx="751" cy="253" r="1" fill="#5D6065"/>
<circle opacity="0.5" cx="751" cy="223" r="1" fill="#5D6065"/>
<circle opacity="0.25" cx="751" cy="193" r="1" fill="#5D6065"/>
<circle opacity="0.75" cx="781" cy="313" r="1" fill="#5D6065"/>
<circle cx="781" cy="283" r="1" fill="#5D6065"/>
<circle cx="781" cy="253" r="1" fill="#5D6065"/>
<circle opacity="0.75" cx="781" cy="223" r="1" fill="#5D6065"/>
<circle opacity="0.5" cx="781" cy="193" r="1" fill="#5D6065"/>
<circle opacity="0.25" cx="781" cy="163" r="1" fill="#5D6065"/>
<circle opacity="0.75" cx="811" cy="313" r="1" fill="#5D6065"/>
<circle opacity="0.5" cx="811" cy="283" r="1" fill="#5D6065"/>
<circle opacity="0.25" cx="811" cy="253" r="1" fill="#5D6065"/>
<circle opacity="0.75" cx="841" cy="313" r="1" fill="#5D6065"/>
<circle cx="841" cy="283" r="1" fill="#5D6065"/>
<circle cx="841" cy="253" r="1" fill="#5D6065"/>
<circle opacity="0.75" cx="841" cy="223" r="1" fill="#5D6065"/>
<circle opacity="0.5" cx="841" cy="193" r="1" fill="#5D6065"/>
<circle opacity="0.25" cx="841" cy="163" r="1" fill="#5D6065"/>
<circle opacity="0.75" cx="871" cy="313" r="1" fill="#5D6065"/>
<circle opacity="0.5" cx="871" cy="283" r="1" fill="#5D6065"/>
<circle opacity="0.25" cx="871" cy="253" r="1" fill="#5D6065"/>
<circle cx="901" cy="313" r="1" fill="#5D6065"/>
<circle opacity="0.75" cx="901" cy="283" r="1" fill="#5D6065"/>
<circle opacity="0.5" cx="901" cy="253" r="1" fill="#5D6065"/>
<circle opacity="0.25" cx="901" cy="223" r="1" fill="#5D6065"/>
<circle cx="931" cy="283" r="1" fill="#5D6065"/>
<circle cx="931" cy="313" r="1" fill="#5D6065"/>
<circle opacity="0.75" cx="931" cy="253" r="1" fill="#5D6065"/>
<circle opacity="0.5" cx="931" cy="223" r="1" fill="#5D6065"/>
<circle opacity="0.25" cx="931" cy="193" r="1" fill="#5D6065"/>
<circle opacity="0.75" cx="961" cy="313" r="1" fill="#5D6065"/>
<circle opacity="0.5" cx="961" cy="283" r="1" fill="#5D6065"/>
<circle opacity="0.25" cx="961" cy="253" r="1" fill="#5D6065"/>
<circle opacity="0.75" cx="991" cy="313" r="1" fill="#5D6065"/>
<circle cx="991" cy="283" r="1" fill="#5D6065"/>
<circle cx="991" cy="253" r="1" fill="#5D6065"/>
<circle opacity="0.75" cx="991" cy="223" r="1" fill="#5D6065"/>
<circle opacity="0.5" cx="991" cy="193" r="1" fill="#5D6065"/>
<circle opacity="0.25" cx="991" cy="163" r="1" fill="#5D6065"/>
<circle opacity="0.75" cx="1021" cy="313" r="1" fill="#5D6065"/>
<circle opacity="0.5" cx="1021" cy="283" r="1" fill="#5D6065"/>
<circle opacity="0.25" cx="1021" cy="253" r="1" fill="#5D6065"/>
<circle cx="1051" cy="313" r="1" fill="#5D6065"/>
<circle opacity="0.75" cx="1051" cy="283" r="1" fill="#5D6065"/>
<circle opacity="0.5" cx="1051" cy="253" r="1" fill="#5D6065"/>
<circle opacity="0.25" cx="1051" cy="223" r="1" fill="#5D6065"/>
<circle cx="1081" cy="283" r="1" fill="#5D6065"/>
<circle cx="1081" cy="313" r="1" fill="#5D6065"/>
<circle opacity="0.75" cx="1081" cy="253" r="1" fill="#5D6065"/>
<circle opacity="0.5" cx="1081" cy="223" r="1" fill="#5D6065"/>
<circle opacity="0.25" cx="1081" cy="193" r="1" fill="#5D6065"/>
<circle opacity="0.75" cx="1111" cy="313" r="1" fill="#5D6065"/>
<circle opacity="0.5" cx="1111" cy="283" r="1" fill="#5D6065"/>
<circle opacity="0.25" cx="1111" cy="253" r="1" fill="#5D6065"/>
<circle opacity="0.75" cx="1141" cy="313" r="1" fill="#5D6065"/>
<circle cx="1141" cy="283" r="1" fill="#5D6065"/>
<circle cx="1141" cy="253" r="1" fill="#5D6065"/>
<circle opacity="0.75" cx="1141" cy="223" r="1" fill="#5D6065"/>
<circle opacity="0.5" cx="1141" cy="193" r="1" fill="#5D6065"/>
<circle opacity="0.25" cx="1141" cy="163" r="1" fill="#5D6065"/>
<circle opacity="0.75" cx="1171" cy="313" r="1" fill="#5D6065"/>
<circle opacity="0.5" cx="1171" cy="283" r="1" fill="#5D6065"/>
<circle opacity="0.25" cx="1171" cy="253" r="1" fill="#5D6065"/>
<circle cx="1201" cy="313" r="1" fill="#5D6065"/>
<circle opacity="0.75" cx="1201" cy="283" r="1" fill="#5D6065"/>
<circle opacity="0.5" cx="1201" cy="253" r="1" fill="#5D6065"/>
<circle opacity="0.25" cx="1201" cy="223" r="1" fill="#5D6065"/>
<circle cx="1231" cy="283" r="1" fill="#5D6065"/>
<circle cx="1231" cy="313" r="1" fill="#5D6065"/>
<circle opacity="0.75" cx="1231" cy="253" r="1" fill="#5D6065"/>
<circle opacity="0.5" cx="1231" cy="223" r="1" fill="#5D6065"/>
<circle opacity="0.25" cx="1231" cy="193" r="1" fill="#5D6065"/>
<circle opacity="0.75" cx="1261" cy="313" r="1" fill="#5D6065"/>
<circle opacity="0.5" cx="1261" cy="283" r="1" fill="#5D6065"/>
<circle opacity="0.25" cx="1261" cy="253" r="1" fill="#5D6065"/>
<circle opacity="0.75" cx="1291" cy="313" r="1" fill="#5D6065"/>
<circle cx="1291" cy="283" r="1" fill="#5D6065"/>
<circle cx="1291" cy="253" r="1" fill="#5D6065"/>
<circle opacity="0.75" cx="1291" cy="223" r="1" fill="#5D6065"/>
<circle opacity="0.5" cx="1291" cy="193" r="1" fill="#5D6065"/>
<circle opacity="0.25" cx="1291" cy="163" r="1" fill="#5D6065"/>
<circle opacity="0.75" cx="1321" cy="313" r="1" fill="#5D6065"/>
<circle opacity="0.5" cx="1321" cy="283" r="1" fill="#5D6065"/>
<circle opacity="0.25" cx="1321" cy="253" r="1" fill="#5D6065"/>
<circle cx="1351" cy="313" r="1" fill="#5D6065"/>
<circle opacity="0.75" cx="1351" cy="283" r="1" fill="#5D6065"/>
<circle opacity="0.5" cx="1351" cy="253" r="1" fill="#5D6065"/>
<circle opacity="0.25" cx="1351" cy="223" r="1" fill="#5D6065"/>
<circle cx="1381" cy="283" r="1" fill="#5D6065"/>
<circle cx="1381" cy="313" r="1" fill="#5D6065"/>
<circle opacity="0.75" cx="1381" cy="253" r="1" fill="#5D6065"/>
<circle opacity="0.5" cx="1381" cy="223" r="1" fill="#5D6065"/>
<circle opacity="0.25" cx="1381" cy="193" r="1" fill="#5D6065"/>
<circle opacity="0.75" cx="1411" cy="313" r="1" fill="#5D6065"/>
<circle opacity="0.5" cx="1411" cy="283" r="1" fill="#5D6065"/>
<circle opacity="0.25" cx="1411" cy="253" r="1" fill="#5D6065"/>
<circle opacity="0.75" cx="1441" cy="313" r="1" fill="#5D6065"/>
<circle cx="1441" cy="283" r="1" fill="#5D6065"/>
<circle cx="1441" cy="253" r="1" fill="#5D6065"/>
<circle opacity="0.75" cx="1441" cy="223" r="1" fill="#5D6065"/>
<circle opacity="0.5" cx="1441" cy="193" r="1" fill="#5D6065"/>
<circle opacity="0.25" cx="1441" cy="163" r="1" fill="#5D6065"/>
<circle opacity="0.75" cx="1471" cy="313" r="1" fill="#5D6065"/>
<circle opacity="0.5" cx="1471" cy="283" r="1" fill="#5D6065"/>
<circle opacity="0.25" cx="1471" cy="253" r="1" fill="#5D6065"/>
<circle cx="1501" cy="313" r="1" fill="#5D6065"/>
<circle opacity="0.75" cx="1501" cy="283" r="1" fill="#5D6065"/>
<circle opacity="0.5" cx="1501" cy="253" r="1" fill="#5D6065"/>
<circle opacity="0.25" cx="1501" cy="223" r="1" fill="#5D6065"/>
<circle cx="1531" cy="283" r="1" fill="#5D6065"/>
<circle cx="1531" cy="313" r="1" fill="#5D6065"/>
<circle opacity="0.75" cx="1531" cy="253" r="1" fill="#5D6065"/>
<circle opacity="0.5" cx="1531" cy="223" r="1" fill="#5D6065"/>
<circle opacity="0.25" cx="1531" cy="193" r="1" fill="#5D6065"/>
<circle opacity="0.75" cx="1561" cy="313" r="1" fill="#5D6065"/>
<circle opacity="0.5" cx="1561" cy="283" r="1" fill="#5D6065"/>
<circle opacity="0.25" cx="1561" cy="253" r="1" fill="#5D6065"/>
<circle opacity="0.75" cx="1591" cy="313" r="1" fill="#5D6065"/>
<circle cx="1591" cy="283" r="1" fill="#5D6065"/>
<circle cx="1591" cy="253" r="1" fill="#5D6065"/>
<circle opacity="0.75" cx="1591" cy="223" r="1" fill="#5D6065"/>
<circle opacity="0.5" cx="1591" cy="193" r="1" fill="#5D6065"/>
<circle opacity="0.25" cx="1591" cy="163" r="1" fill="#5D6065"/>
<circle opacity="0.75" cx="1621" cy="313" r="1" fill="#5D6065"/>
<circle opacity="0.5" cx="1621" cy="283" r="1" fill="#5D6065"/>
<circle opacity="0.25" cx="1621" cy="253" r="1" fill="#5D6065"/>
<circle cx="1651" cy="313" r="1" fill="#5D6065"/>
<circle opacity="0.75" cx="1651" cy="283" r="1" fill="#5D6065"/>
<circle opacity="0.5" cx="1651" cy="253" r="1" fill="#5D6065"/>
<circle opacity="0.25" cx="1651" cy="223" r="1" fill="#5D6065"/>
<circle cx="1681" cy="283" r="1" fill="#5D6065"/>
<circle cx="1681" cy="313" r="1" fill="#5D6065"/>
<circle opacity="0.75" cx="1681" cy="253" r="1" fill="#5D6065"/>
<circle opacity="0.5" cx="1681" cy="223" r="1" fill="#5D6065"/>
<circle opacity="0.25" cx="1681" cy="193" r="1" fill="#5D6065"/>
<circle opacity="0.75" cx="1711" cy="313" r="1" fill="#5D6065"/>
<circle opacity="0.5" cx="1711" cy="283" r="1" fill="#5D6065"/>
<circle opacity="0.25" cx="1711" cy="253" r="1" fill="#5D6065"/>
<circle opacity="0.75" cx="1741" cy="313" r="1" fill="#5D6065"/>
<circle cx="1741" cy="283" r="1" fill="#5D6065"/>
<circle cx="1741" cy="253" r="1" fill="#5D6065"/>
<circle opacity="0.75" cx="1741" cy="223" r="1" fill="#5D6065"/>
<circle opacity="0.5" cx="1741" cy="193" r="1" fill="#5D6065"/>
<circle opacity="0.25" cx="1741" cy="163" r="1" fill="#5D6065"/>
<circle opacity="0.75" cx="1771" cy="313" r="1" fill="#5D6065"/>
<circle opacity="0.5" cx="1771" cy="283" r="1" fill="#5D6065"/>
<circle opacity="0.25" cx="1771" cy="253" r="1" fill="#5D6065"/>
<circle cx="1801" cy="313" r="1" fill="#5D6065"/>
<circle opacity="0.75" cx="1801" cy="283" r="1" fill="#5D6065"/>
<circle opacity="0.5" cx="1801" cy="253" r="1" fill="#5D6065"/>
<circle opacity="0.25" cx="1801" cy="223" r="1" fill="#5D6065"/>
<circle cx="1831" cy="283" r="1" fill="#5D6065"/>
<circle cx="1831" cy="313" r="1" fill="#5D6065"/>
<circle opacity="0.75" cx="1831" cy="253" r="1" fill="#5D6065"/>
<circle opacity="0.5" cx="1831" cy="223" r="1" fill="#5D6065"/>
<circle opacity="0.25" cx="1831" cy="193" r="1" fill="#5D6065"/>
<circle opacity="0.75" cx="1861" cy="313" r="1" fill="#5D6065"/>
<circle opacity="0.5" cx="1861" cy="283" r="1" fill="#5D6065"/>
<circle opacity="0.25" cx="1861" cy="253" r="1" fill="#5D6065"/>
<circle opacity="0.75" cx="1891" cy="313" r="1" fill="#5D6065"/>
<circle cx="1891" cy="283" r="1" fill="#5D6065"/>
<circle cx="1891" cy="253" r="1" fill="#5D6065"/>
<circle opacity="0.75" cx="1891" cy="223" r="1" fill="#5D6065"/>
<circle opacity="0.5" cx="1891" cy="193" r="1" fill="#5D6065"/>
<circle opacity="0.25" cx="1891" cy="163" r="1" fill="#5D6065"/>
<circle opacity="0.75" cx="1921" cy="313" r="1" fill="#5D6065"/>
<circle opacity="0.5" cx="1921" cy="283" r="1" fill="#5D6065"/>
<circle opacity="0.25" cx="1921" cy="253" r="1" fill="#5D6065"/>
<circle cx="1951" cy="313" r="1" fill="#5D6065"/>
<circle opacity="0.75" cx="1951" cy="283" r="1" fill="#5D6065"/>
<circle opacity="0.5" cx="1951" cy="253" r="1" fill="#5D6065"/>
<circle opacity="0.25" cx="1951" cy="223" r="1" fill="#5D6065"/>
<circle cx="1981" cy="283" r="1" fill="#5D6065"/>
<circle cx="1981" cy="313" r="1" fill="#5D6065"/>
<circle opacity="0.75" cx="1981" cy="253" r="1" fill="#5D6065"/>
<circle opacity="0.5" cx="1981" cy="223" r="1" fill="#5D6065"/>
<circle opacity="0.25" cx="1981" cy="193" r="1" fill="#5D6065"/>
<g opacity="0.3">
<rect x="0.5" y="337.29" width="2008" height="70" fill="url(#paint0_linear_802_3787)" fill-opacity="0.1"/>
<rect x="0.5" y="337.29" width="2008" height="31.7409" fill="url(#paint1_linear_802_3787)" fill-opacity="0.1"/>
<rect x="0.5" y="337.29" width="2008" height="16.7206" fill="url(#paint2_linear_802_3787)" fill-opacity="0.1"/>
<rect x="0.5" y="337.29" width="2008" height="6.51817" fill="url(#paint3_linear_802_3787)" fill-opacity="0.1"/>
</g>
<g opacity="0.6">
<rect x="2008" y="344" width="2008" height="247" transform="rotate(-180 2008 344)" fill="url(#paint4_linear_802_3787)" fill-opacity="0.1"/>
<rect x="2008" y="344" width="2008" height="112" transform="rotate(-180 2008 344)" fill="url(#paint5_linear_802_3787)" fill-opacity="0.1"/>
<rect x="2008" y="344" width="2008" height="59" transform="rotate(-180 2008 344)" fill="url(#paint6_linear_802_3787)" fill-opacity="0.1"/>
<rect x="2008" y="344" width="2008" height="22.9998" transform="rotate(-180 2008 344)" fill="url(#paint7_linear_802_3787)" fill-opacity="0.1"/>
</g>
<rect y="418" width="366" height="334" transform="rotate(-90 0 418)" fill="url(#paint8_linear_802_3787)"/>
<rect x="2008" y="52" width="366" height="334" transform="rotate(90 2008 52)" fill="url(#paint9_linear_802_3787)"/>
<circle cx="1" cy="1" r="1" transform="matrix(1 0 0 -1 300 194)" fill="#5EF1EC"/>
<circle cx="1" cy="1" r="1" transform="matrix(1 0 0 -1 150 84)" fill="#5EF1EC"/>
<circle cx="1" cy="1" r="1" transform="matrix(1 0 0 -1 690 224)" fill="#5EF1EC"/>
<circle cx="1" cy="1" r="1" transform="matrix(1 0 0 -1 810 194)" fill="#5EF1EC"/>
<circle cx="1" cy="1" r="1" transform="matrix(1 0 0 -1 660 94)" fill="#5EF1EC"/>
<circle cx="1" cy="1" r="1" transform="matrix(1 0 0 -1 1140 134)" fill="#5EF1EC"/>
<circle cx="1" cy="1" r="1" transform="matrix(1 0 0 -1 1410 254)" fill="#5EF1EC"/>
<circle cx="1" cy="1" r="1" transform="matrix(1 0 0 -1 1530 4)" fill="#5EF1EC"/>
<circle cx="1" cy="1" r="1" transform="matrix(1 0 0 -1 1650 194)" fill="#5EF1EC"/>
<defs>
<linearGradient id="paint0_linear_802_3787" x1="1004.5" y1="337.29" x2="1004.5" y2="407.29" gradientUnits="userSpaceOnUse">
<stop stop-color="#43DDD7"/>
<stop offset="1" stop-color="#43DDD7" stop-opacity="0"/>
</linearGradient>
<linearGradient id="paint1_linear_802_3787" x1="1004.5" y1="337.29" x2="1004.5" y2="369.031" gradientUnits="userSpaceOnUse">
<stop stop-color="#43DDD7"/>
<stop offset="1" stop-color="#43DDD7" stop-opacity="0"/>
</linearGradient>
<linearGradient id="paint2_linear_802_3787" x1="1004.5" y1="337.29" x2="1004.5" y2="354.011" gradientUnits="userSpaceOnUse">
<stop stop-color="#F1CE5B"/>
<stop offset="1" stop-color="#F1CE5B" stop-opacity="0"/>
</linearGradient>
<linearGradient id="paint3_linear_802_3787" x1="1004.5" y1="337.29" x2="1004.5" y2="343.808" gradientUnits="userSpaceOnUse">
<stop stop-color="#FFEEB8"/>
<stop offset="1" stop-color="#FFF4D1" stop-opacity="0"/>
</linearGradient>
<linearGradient id="paint4_linear_802_3787" x1="3012" y1="344" x2="3012" y2="591" gradientUnits="userSpaceOnUse">
<stop stop-color="#43DDD7"/>
<stop offset="1" stop-color="#43DDD7" stop-opacity="0"/>
</linearGradient>
<linearGradient id="paint5_linear_802_3787" x1="3012" y1="344" x2="3012" y2="456" gradientUnits="userSpaceOnUse">
<stop stop-color="#43DDD7"/>
<stop offset="1" stop-color="#43DDD7" stop-opacity="0"/>
</linearGradient>
<linearGradient id="paint6_linear_802_3787" x1="3012" y1="344" x2="3012" y2="403" gradientUnits="userSpaceOnUse">
<stop stop-color="#F1CE5B"/>
<stop offset="1" stop-color="#F1CE5B" stop-opacity="0"/>
</linearGradient>
<linearGradient id="paint7_linear_802_3787" x1="3012" y1="344" x2="3012" y2="367" gradientUnits="userSpaceOnUse">
<stop stop-color="#FFEEB8"/>
<stop offset="1" stop-color="#FFF4D1" stop-opacity="0"/>
</linearGradient>
<linearGradient id="paint8_linear_802_3787" x1="183" y1="418" x2="183" y2="752" gradientUnits="userSpaceOnUse">
<stop stop-color="#090909"/>
<stop offset="1" stop-color="#090909" stop-opacity="0"/>
</linearGradient>
<linearGradient id="paint9_linear_802_3787" x1="2191" y1="52" x2="2191" y2="386" gradientUnits="userSpaceOnUse">
<stop stop-color="#090909"/>
<stop offset="1" stop-color="#090909" stop-opacity="0"/>
</linearGradient>
</defs>
</svg>
