<svg width="32" height="32" viewBox="0 0 32 32" fill="none" xmlns="http://www.w3.org/2000/svg">
<rect x="0.5" y="0.5" width="31" height="31" rx="5.5" fill="#113333" fill-opacity="0.996078"/>
<rect x="0.5" y="0.5" width="31" height="31" rx="5.5" stroke="#33645D"/>
<path opacity="0.2" fill-rule="evenodd" clip-rule="evenodd" d="M14.4066 21.9766C14.9653 24.0351 16.965 25.6083 17.9721 25.5422C18.0089 25.5422 21.8024 24.8364 23.8755 21.3664C25.4929 18.6684 24.9415 16.0585 22.7434 16.0071C21.9494 16.0659 13.348 18.0508 14.4066 21.9766Z" fill="white"/>
<path opacity="0.2" fill-rule="evenodd" clip-rule="evenodd" d="M22.5376 8.74369C20.854 7.31012 18.6706 6.44263 16.2886 6.44263C14.8918 6.44263 13.5685 6.74404 12.3776 7.27336C12.1644 7.36158 11.9585 7.46451 11.7674 7.57478C11.6351 7.6483 11.4954 7.72181 11.363 7.79533H11.3924C10.9955 8.08205 10.6573 8.39817 10.3779 8.76575C7.6137 12.4195 16.8841 15.0808 21.8465 15.0882C24.1255 16.7276 24.7651 10.4787 22.5376 8.74369Z" fill="white"/>
<path fill-rule="evenodd" clip-rule="evenodd" d="M12.9361 8.81712C11.6643 10.7286 7.41502 12.0813 6.71661 11.8681C6.71661 11.8681 6.71661 11.8681 6.71661 11.8607C6.74602 11.8019 6.77543 11.7431 6.80483 11.6916C7.04744 11.2285 7.31945 10.78 7.62822 10.361C7.93699 9.94192 8.27516 9.54494 8.64275 9.17735C9.01033 8.80977 9.40732 8.47159 9.82636 8.16283C10.091 7.97168 10.3557 7.79524 10.635 7.62615C11.2305 7.28063 11.8407 7.25857 12.0392 7.25122C13.9286 7.28798 12.9435 8.80242 12.9288 8.81712" fill="white"/>
<path fill-rule="evenodd" clip-rule="evenodd" d="M11.8921 22.3514C11.9803 22.9542 11.8921 25.3288 11.7671 25.5273C11.6642 25.5273 11.4436 25.5494 10.804 25.1891C10.4659 24.998 10.1424 24.7848 9.83361 24.5569C9.41457 24.2481 9.01758 23.9099 8.65 23.5424C8.28242 23.1748 7.94424 22.7778 7.63547 22.3587C7.3267 21.9397 7.04734 21.4912 6.81209 21.0281C6.56948 20.5649 6.36364 20.0724 6.19455 19.5725C6.02546 19.0652 5.90048 18.5432 5.81226 18.0066C5.72404 17.4699 5.67993 16.9185 5.67993 16.3598C5.67993 15.8011 5.72404 15.2497 5.81226 14.713C5.90048 14.1764 6.03281 13.6544 6.19455 13.1471C6.23131 13.0442 6.26071 12.9413 6.30482 12.8457C7.03999 13.8161 7.88543 14.6983 8.60589 15.6834C9.28959 16.6171 10.238 18.1462 10.4291 18.4771C11.6201 20.5061 11.8112 21.7559 11.9068 22.3514" fill="white"/>
<path fill-rule="evenodd" clip-rule="evenodd" d="M25.9923 16.3598C25.9923 17.6758 25.7424 18.9403 25.2866 20.0945C24.0883 21.381 16.0162 18.2125 15.9426 18.1831C14.8399 17.6979 11.4802 16.2275 11.1788 13.9191C10.745 10.5962 17.4938 8.27303 20.4566 8.18481C20.8094 8.18481 21.8975 8.19952 22.5224 8.71413C24.6543 10.5741 25.9997 13.3163 25.9997 16.3672" fill="white"/>
<path fill-rule="evenodd" clip-rule="evenodd" d="M20.5304 25.373C19.6482 25.7847 18.6852 25.4833 18.9351 24.6305C19.4203 22.9837 23.6402 21.3002 24.5665 21.2046C24.6841 21.1899 24.7282 21.2708 24.6768 21.359C23.7064 23.0572 22.2654 24.4614 20.5304 25.373Z" fill="white"/>
</svg>
