<svg width="32" height="32" viewBox="0 0 32 32" fill="none" xmlns="http://www.w3.org/2000/svg">
<rect width="32" height="32" rx="6" fill="#1E7AAF" fill-opacity="0.3"/>
<rect x="0.5" y="0.5" width="31" height="31" rx="5.5" stroke="#57AFE2" stroke-opacity="0.4"/>
<path fill-rule="evenodd" clip-rule="evenodd" d="M20.2162 22.1519C18.3935 22.4407 16.4287 22.0809 14.7148 20.9967C11.0835 18.7052 9.91886 14.0229 12.1204 10.5431C12.2624 10.3064 12.4234 10.0886 12.5938 9.88027C11.0172 13.147 12.2198 17.2328 15.5007 19.3018C18.4976 21.1955 22.252 20.812 24.6192 18.5869C26.0443 13.8288 23.3457 8.81503 18.5876 7.38523C13.8295 5.96017 8.81574 8.66353 7.39068 13.4216C5.96562 18.1797 8.66424 23.1935 13.4223 24.6233C15.6286 25.2861 18.0052 25.073 20.0647 24.0362C15.0746 25.5133 9.83364 22.6679 8.3565 17.6779C8.29022 17.4506 8.23341 17.2234 8.18133 16.9961C10.1461 21.6784 15.4676 23.9604 20.2162 22.1566H20.221L20.2162 22.1519Z" fill="#F2F2F2"/>
</svg>
